<svg xmlns="http://www.w3.org/2000/svg" viewBox="-644.5 128.28 500 243.08">
  <path fill="#407E45" d="M-468.71 183.18l.46 34.47 34.71 9.08-35.17-43.55z"/>
  <path fill="#4F9F45" d="M-468.25 217.65l18.77 38.11 15.95-29.03-34.72-9.08z"/>
  <path fill="#16486C" d="M-449.95 150.06l35.18-19.96-18.3 34.15-16.88-14.2z"/>
  <path fill="#407E45" d="M-433.54 226.73l42.7-30.4-42.23-32.08-.47 62.48z"/>
  <path fill="#1D94D2" d="M-468.71 183.18l18.76-33.12 16.88 14.18-35.64 18.94z"/>
  <path fill="#72BE44" d="M-468.71 183.18l35.17 43.55.47-62.49-35.64 18.94z"/>
  <linearGradient id="a" gradientUnits="userSpaceOnUse" x1="355.31" y1="-543.55" x2="525.59" y2="-543.55" gradientTransform="matrix(.2507 0 0 -.2507 -538.56 108.39)">
    <stop offset="0" stop-color="#00a8ae"/>
    <stop offset="1" stop-color="#0095ae"/>
  </linearGradient>
  <path fill="url(#a)" d="M-449.48 255.76l15.95-29.03 26.73 35.84-42.68-6.8z"/>
  <path fill="#006BB6" d="M-449.48 255.76l23.92 18.6 18.76-11.8-42.68-6.8z"/>
  <path fill="#DEA53B" d="M-316.26 222.65v-36.3l-25.34-7.26 25.34 43.56z"/>
  <path fill="#BE8C2C" d="M-347.23 141.89l5.63 37.2 13.6-17.24-19.23-19.96z"/>
  <path fill="#F8C116" d="M-341.6 179.1l25.34 7.25-11.73-24.5-13.6 17.24z"/>
  <path fill="#006BB6" d="M-433.07 164.24l18.3-34.15 39.87 19.06-58.17 15.1z"/>
  <path fill="#F6C328" d="M-433.07 164.24l42.22 32.1 15.95-47.19-58.17 15.1z"/>
  <path fill="#F89E27" d="M-414.77 130.1l30.49-1.82 9.38 20.87-39.87-19.06z"/>
  <path fill="#C3994E" d="M-390.85 196.33l49.25-17.24-33.3-29.94-15.95 47.18z"/>
  <path fill="#F8C116" d="M-347.23 141.89l5.63 37.2-33.3-29.94 27.67-7.26z"/>
  <path fill="#72BE44" d="M-433.54 226.73l26.74 35.84 36.6-19.51-63.34-16.33z"/>
  <path fill="#BE8C2C" d="M-433.54 226.73l42.7-30.4 20.63 46.73-63.33-16.33z"/>
  <path fill="#DE1767" d="M-406.8 262.57l48.32 10.43-11.73-29.94-36.59 19.5z"/>
  <path fill="#E4263C" d="M-390.85 196.33l49.25-17.24-28.6 63.97-20.65-46.73z"/>
  <path fill="#EC5F41" d="M-358.48 273l26.74-23.59-38.47-6.35 11.73 29.94z"/>
  <path fill="#EF8446" d="M-341.6 179.1l25.34 43.54-53.95 20.42 28.61-63.97z"/>
  <path fill="#DC4959" d="M-331.75 249.41l15.48-26.76-53.94 20.4 38.46 6.36z"/>
  <path fill="#16486C" d="M-425.56 274.36l1.93 34.31 28.56-21.6-30.49-12.7z"/>
  <path fill="#26BCE3" d="M-425.56 274.36l18.76-11.8 11.73 24.5-30.49-12.7z"/>
  <path fill="#006BB6" d="M-423.63 308.67h64.14l-35.58-21.6-28.56 21.6z"/>
  <path fill="#C3202F" d="M-406.8 262.57l48.32 10.43-36.59 14.07-11.73-24.5z"/>
  <path fill="#A31D44" d="M-359.49 308.67l1-35.67-36.58 14.07 35.58 21.6z"/>
  <path fill="#DEA53B" d="M-384.28 128.28l9.38 20.87 11.73-17.24-21.11-3.63z"/>
  <path fill="#EB6426" d="M-374.9 149.15l27.67-7.26-15.94-9.98-11.73 17.24z"/>
  <path fill="#585E60" d="M-360.46 322.4h-62.2c-2.75 0-5-2.17-5-4.82s2.25-2.94 5-2.94h62.2c2.75 0 5 .28 5 2.94s-2.25 4.83-5 4.83zm0 13.55h-62.2c-2.75 0-5-2.18-5-4.83s2.25-2.94 5-2.94h62.2c2.75 0 5 .28 5 2.94s-2.25 4.83-5 4.83zm-54.26 5.8c2.68 6.73 9.41 7.77 17.3 7.77h11.72c7.89 0 14.62-1.04 17.3-7.78h-46.32z"/>
  <g opacity=".25">
    <linearGradient id="b" gradientUnits="userSpaceOnUse" x1="278.6" y1="-385.2" x2="418.93" y2="-385.2" gradientTransform="matrix(.2507 0 0 -.2507 -538.56 108.39)">
      <stop offset="0" stop-opacity="0"/>
      <stop offset="1"/>
    </linearGradient>
    <path fill="url(#b)" d="M-468.71 183.18l.46 34.47 34.71 9.08-35.17-43.55z"/>
    <linearGradient id="c" gradientUnits="userSpaceOnUse" x1="280.47" y1="-511.88" x2="418.93" y2="-511.88" gradientTransform="matrix(.2507 0 0 -.2507 -538.56 108.39)">
      <stop offset="0" stop-opacity="0"/>
      <stop offset="1"/>
    </linearGradient>
    <path fill="url(#c)" d="M-468.25 217.65l18.77 38.11 15.95-29.03-34.72-9.08z"/>
    <linearGradient id="d" gradientUnits="userSpaceOnUse" x1="353.44" y1="-154.71" x2="493.78" y2="-154.71" gradientTransform="matrix(.2507 0 0 -.2507 -538.56 108.39)">
      <stop offset="0" stop-opacity="0"/>
      <stop offset="1"/>
    </linearGradient>
    <path fill="url(#d)" d="M-449.95 150.06l35.18-19.96-18.3 34.15-16.88-14.2z"/>
    <linearGradient id="e" gradientUnits="userSpaceOnUse" x1="589.21" y1="-347.44" x2="418.93" y2="-347.44" gradientTransform="matrix(.2507 0 0 -.2507 -538.56 108.39)">
      <stop offset="0" stop-opacity="0"/>
      <stop offset="1"/>
    </linearGradient>
    <path fill="url(#e)" d="M-433.54 226.73l42.7-30.4-42.23-32.08-.47 62.48z"/>
    <linearGradient id="f" gradientUnits="userSpaceOnUse" x1="278.6" y1="-232.28" x2="420.8" y2="-232.28" gradientTransform="matrix(.2507 0 0 -.2507 -538.56 108.39)">
      <stop offset="0" stop-opacity="0"/>
      <stop offset="1"/>
    </linearGradient>
    <path fill="url(#f)" d="M-468.71 183.18l18.76-33.12 16.88 14.18-35.64 18.94z"/>
    <linearGradient id="g" gradientUnits="userSpaceOnUse" x1="278.6" y1="-347.44" x2="420.8" y2="-347.44" gradientTransform="matrix(.2507 0 0 -.2507 -538.56 108.39)">
      <stop offset="0" stop-opacity="0"/>
      <stop offset="1"/>
    </linearGradient>
    <path fill="url(#g)" d="M-468.71 183.18l35.17 43.55.47-62.49-35.64 18.94z"/>
    <linearGradient id="h" gradientUnits="userSpaceOnUse" x1="355.31" y1="-543.55" x2="525.59" y2="-543.55" gradientTransform="matrix(.2507 0 0 -.2507 -538.56 108.39)">
      <stop offset="0" stop-opacity="0"/>
      <stop offset="1"/>
    </linearGradient>
    <path fill="url(#h)" d="M-449.48 255.76l15.95-29.03 26.73 35.84-42.68-6.8z"/>
    <linearGradient id="i" gradientUnits="userSpaceOnUse" x1="355.31" y1="-624.98" x2="525.59" y2="-624.98" gradientTransform="matrix(.2507 0 0 -.2507 -538.56 108.39)">
      <stop offset="0" stop-opacity="0"/>
      <stop offset="1"/>
    </linearGradient>
    <path fill="url(#i)" d="M-449.48 255.76l23.92 18.6 18.76-11.8-42.68-6.8z"/>
    <linearGradient id="j" gradientUnits="userSpaceOnUse" x1="785.67" y1="-368.91" x2="886.72" y2="-368.91" gradientTransform="matrix(.2507 0 0 -.2507 -538.56 108.39)">
      <stop offset="0" stop-opacity="0"/>
      <stop offset="1"/>
    </linearGradient>
    <path fill="url(#j)" d="M-316.26 222.65v-36.3l-25.34-7.26 25.34 43.56z"/>
    <linearGradient id="k" gradientUnits="userSpaceOnUse" x1="763.22" y1="-207.85" x2="839.94" y2="-207.85" gradientTransform="matrix(.2507 0 0 -.2507 -538.56 108.39)">
      <stop offset="0" stop-opacity="0"/>
      <stop offset="1"/>
    </linearGradient>
    <path fill="url(#k)" d="M-347.23 141.89l5.63 37.2 13.6-17.24-19.23-19.96z"/>
    <linearGradient id="l" gradientUnits="userSpaceOnUse" x1="785.67" y1="-262.14" x2="886.72" y2="-262.14" gradientTransform="matrix(.2507 0 0 -.2507 -538.56 108.39)">
      <stop offset="0" stop-opacity="0"/>
      <stop offset="1"/>
    </linearGradient>
    <path fill="url(#l)" d="M-341.6 179.1l25.34 7.25-11.73-24.5-13.6 17.24z"/>
    <linearGradient id="m" gradientUnits="userSpaceOnUse" x1="420.8" y1="-154.71" x2="652.82" y2="-154.71" gradientTransform="matrix(.2507 0 0 -.2507 -538.56 108.39)">
      <stop offset="0" stop-opacity="0"/>
      <stop offset="1"/>
    </linearGradient>
    <path fill="url(#m)" d="M-433.07 164.24l18.3-34.15 39.87 19.06-58.17 15.1z"/>
    <linearGradient id="n" gradientUnits="userSpaceOnUse" x1="420.8" y1="-256.71" x2="652.82" y2="-256.71" gradientTransform="matrix(.2507 0 0 -.2507 -538.56 108.39)">
      <stop offset="0" stop-opacity="0"/>
      <stop offset="1"/>
    </linearGradient>
    <path fill="url(#n)" d="M-433.07 164.24l42.22 32.1 15.95-47.19-58.17 15.1z"/>
    <linearGradient id="o" gradientUnits="userSpaceOnUse" x1="493.78" y1="-120.98" x2="652.82" y2="-120.98" gradientTransform="matrix(.2507 0 0 -.2507 -538.56 108.39)">
      <stop offset="0" stop-opacity="0"/>
      <stop offset="1"/>
    </linearGradient>
    <path fill="url(#o)" d="M-414.77 130.1l30.49-1.82 9.38 20.87-39.87-19.06z"/>
    <linearGradient id="p" gradientUnits="userSpaceOnUse" x1="589.21" y1="-256.71" x2="785.67" y2="-256.71" gradientTransform="matrix(.2507 0 0 -.2507 -538.56 108.39)">
      <stop offset="0" stop-opacity="0"/>
      <stop offset="1"/>
    </linearGradient>
    <path fill="url(#p)" d="M-390.85 196.33l49.25-17.24-33.3-29.94-15.95 47.18z"/>
    <linearGradient id="q" gradientUnits="userSpaceOnUse" x1="652.82" y1="-207.85" x2="785.67" y2="-207.85" gradientTransform="matrix(.2507 0 0 -.2507 -538.56 108.39)">
      <stop offset="0" stop-opacity="0"/>
      <stop offset="1"/>
    </linearGradient>
    <path fill="url(#q)" d="M-347.23 141.89l5.63 37.2-33.3-29.94 27.67-7.26z"/>
    <linearGradient id="r" gradientUnits="userSpaceOnUse" x1="418.93" y1="-543.55" x2="671.54" y2="-543.55" gradientTransform="matrix(.2507 0 0 -.2507 -538.56 108.39)">
      <stop offset="0" stop-opacity="0"/>
      <stop offset="1"/>
    </linearGradient>
    <path fill="url(#r)" d="M-433.54 226.73l26.74 35.84 36.6-19.51-63.34-16.33z"/>
    <linearGradient id="s" gradientUnits="userSpaceOnUse" x1="418.93" y1="-444.01" x2="671.54" y2="-444.01" gradientTransform="matrix(.2507 0 0 -.2507 -538.56 108.39)">
      <stop offset="0" stop-opacity="0"/>
      <stop offset="1"/>
    </linearGradient>
    <path fill="url(#s)" d="M-433.54 226.73l42.7-30.4 20.63 46.73-63.33-16.33z"/>
    <linearGradient id="t" gradientUnits="userSpaceOnUse" x1="525.59" y1="-596.93" x2="718.31" y2="-596.93" gradientTransform="matrix(.2507 0 0 -.2507 -538.56 108.39)">
      <stop offset="0" stop-opacity="0"/>
      <stop offset="1"/>
    </linearGradient>
    <path fill="url(#t)" d="M-406.8 262.57l48.32 10.43-11.73-29.94-36.59 19.5z"/>
    <linearGradient id="u" gradientUnits="userSpaceOnUse" x1="589.21" y1="-409.63" x2="785.67" y2="-409.63" gradientTransform="matrix(.2507 0 0 -.2507 -538.56 108.39)">
      <stop offset="0" stop-opacity="0"/>
      <stop offset="1"/>
    </linearGradient>
    <path fill="url(#u)" d="M-390.85 196.33l49.25-17.24-28.6 63.97-20.65-46.73z"/>
    <linearGradient id="v" gradientUnits="userSpaceOnUse" x1="671.54" y1="-596.93" x2="824.97" y2="-596.93" gradientTransform="matrix(.2507 0 0 -.2507 -538.56 108.39)">
      <stop offset="0" stop-opacity="0"/>
      <stop offset="1"/>
    </linearGradient>
    <path fill="url(#v)" d="M-358.48 273l26.74-23.59-38.47-6.35 11.73 29.94z"/>
    <linearGradient id="w" gradientUnits="userSpaceOnUse" x1="671.54" y1="-409.63" x2="886.72" y2="-409.63" gradientTransform="matrix(.2507 0 0 -.2507 -538.56 108.39)">
      <stop offset="0" stop-opacity="0"/>
      <stop offset="1"/>
    </linearGradient>
    <path fill="url(#w)" d="M-341.6 179.1l25.34 43.54-53.95 20.42 28.61-63.97z"/>
    <linearGradient id="x" gradientUnits="userSpaceOnUse" x1="671.54" y1="-509.16" x2="886.72" y2="-509.16" gradientTransform="matrix(.2507 0 0 -.2507 -538.56 108.39)">
      <stop offset="0" stop-opacity="0"/>
      <stop offset="1"/>
    </linearGradient>
    <path fill="url(#x)" d="M-331.75 249.41l15.48-26.76-53.94 20.4 38.46 6.36z"/>
    <linearGradient id="y" gradientUnits="userSpaceOnUse" x1="450.74" y1="-730.51" x2="572.37" y2="-730.51" gradientTransform="matrix(.2507 0 0 -.2507 -538.56 108.39)">
      <stop offset="0" stop-opacity="0"/>
      <stop offset="1"/>
    </linearGradient>
    <path fill="url(#y)" d="M-425.56 274.36l1.93 34.31 28.56-21.6-30.49-12.7z"/>
    <linearGradient id="z" gradientUnits="userSpaceOnUse" x1="450.74" y1="-663.89" x2="572.37" y2="-663.89" gradientTransform="matrix(.2507 0 0 -.2507 -538.56 108.39)">
      <stop offset="0" stop-opacity="0"/>
      <stop offset="1"/>
    </linearGradient>
    <path fill="url(#z)" d="M-425.56 274.36l18.76-11.8 11.73 24.5-30.49-12.7z"/>
    <linearGradient id="A" gradientUnits="userSpaceOnUse" x1="458.42" y1="-755.85" x2="714.31" y2="-755.85" gradientTransform="matrix(.2507 0 0 -.2507 -538.56 108.39)">
      <stop offset="0" stop-opacity="0"/>
      <stop offset="1"/>
    </linearGradient>
    <path fill="url(#A)" d="M-423.63 308.67h64.14l-35.58-21.6-28.56 21.6z"/>
    <linearGradient id="B" gradientUnits="userSpaceOnUse" x1="525.59" y1="-663.89" x2="718.31" y2="-663.89" gradientTransform="matrix(.2507 0 0 -.2507 -538.56 108.39)">
      <stop offset="0" stop-opacity="0"/>
      <stop offset="1"/>
    </linearGradient>
    <path fill="url(#B)" d="M-406.8 262.57l48.32 10.43-36.59 14.07-11.73-24.5z"/>
    <linearGradient id="C" gradientUnits="userSpaceOnUse" x1="572.37" y1="-727.79" x2="718.31" y2="-727.79" gradientTransform="matrix(.2507 0 0 -.2507 -538.56 108.39)">
      <stop offset="0" stop-opacity="0"/>
      <stop offset="1"/>
    </linearGradient>
    <path fill="url(#C)" d="M-359.49 308.67l1-35.67-36.58 14.07 35.58 21.6z"/>
    <linearGradient id="D" gradientUnits="userSpaceOnUse" x1="615.4" y1="-120.98" x2="699.6" y2="-120.98" gradientTransform="matrix(.2507 0 0 -.2507 -538.56 108.39)">
      <stop offset="0" stop-opacity="0"/>
      <stop offset="1"/>
    </linearGradient>
    <path fill="url(#D)" d="M-384.28 128.28l9.38 20.87 11.73-17.24-21.11-3.63z"/>
    <linearGradient id="E" gradientUnits="userSpaceOnUse" x1="652.82" y1="-128.22" x2="763.22" y2="-128.22" gradientTransform="matrix(.2507 0 0 -.2507 -538.56 108.39)">
      <stop offset="0" stop-opacity="0"/>
      <stop offset="1"/>
    </linearGradient>
    <path fill="url(#E)" d="M-374.9 149.15l27.67-7.26-15.94-9.98-11.73 17.24z"/>
    <linearGradient id="F" gradientUnits="userSpaceOnUse" x1="474.68" y1="-838.24" x2="626.65" y2="-838.24" gradientTransform="matrix(.2507 0 0 -.2507 -538.56 108.39)">
      <stop offset="0" stop-opacity="0"/>
      <stop offset="1"/>
    </linearGradient>
    <path fill="url(#F)" d="M-360.46 322.4h-62.2c-2.75 0-5-2.17-5-4.82s2.25-2.94 5-2.94h62.2c2.75 0 5 .28 5 2.94s-2.25 4.83-5 4.83z"/>
    <linearGradient id="G" gradientUnits="userSpaceOnUse" x1="474.68" y1="-892.25" x2="626.65" y2="-892.25" gradientTransform="matrix(.2507 0 0 -.2507 -538.56 108.39)">
      <stop offset="0" stop-opacity="0"/>
      <stop offset="1"/>
    </linearGradient>
    <path fill="url(#G)" d="M-360.46 335.95h-62.2c-2.75 0-5-2.18-5-4.83s2.25-2.94 5-2.94h62.2c2.75 0 5 .28 5 2.94s-2.25 4.83-5 4.83z"/>
    <linearGradient id="H" gradientUnits="userSpaceOnUse" x1="474.68" y1="-946.38" x2="626.65" y2="-946.38" gradientTransform="matrix(.2507 0 0 -.2507 -538.56 108.39)">
      <stop offset="0" stop-opacity="0"/>
      <stop offset="1"/>
    </linearGradient>
    <path fill="url(#H)" d="M-414.72 341.74c2.68 6.74 9.41 7.78 17.3 7.78h11.72c7.89 0 14.62-1.04 17.3-7.78h-46.32z"/>
  </g>
  <path fill="#737373" d="M-433.34 199.41h.13c.04 0 .08 0 .12-.02 12.16-1.1 18.11-12.86 18.11-12.86s10.07 8.26 21.64 11.58c1.2.34 2.43.63 3.65.86 1.74.31 3.49.5 5.22.5 14.66 0 25.69-11.13 29.63-15.74.63-.73 1.08-1.3 1.34-1.64l.13-.17a.5.5 0 00.03-.18.49.49 0 00-.03-.17l-.13-.17-.2-.26c-.5.64-1.43 1.77-2.71 3.14-4.87 5.2-15.03 13.98-28.06 13.98a29.83 29.83 0 01-7.64-1.03c-12.08-3.06-22.87-11.9-22.87-11.9s-5.95 11.76-18.1 12.86h-.13l-.13.02-.05-.02-.22.36-.1.15a.47.47 0 00-.08.26c0 .24.2.43.45.45zm.23-33.62c1.72 2.92 4.84 9.08 5.04 15.35l.02-.6c0-6.46-3.27-12.92-5.05-15.95l-.3-.5c-.22.05-.41.26-.39.45.04.2.19.43.19.43l.5.82zm58.09 8.26a4.88 4.88 0 014.9 4.18c.02-.2.06-.4.06-.6a4.88 4.88 0 00-4.97-4.79 4.87 4.87 0 00-4.95 4.79c0 .2.04.4.06.6a4.88 4.88 0 014.9-4.18zm-3 127.63c.05.07.08.15.1.22.13-.31.14-.63-.1-1.03-.54-.96-.62-.68-2.61-1.64-1.03-.5-1.56-1.94-1.64-3.3-.12 1.54.4 3.51 1.64 4.12 1.99.95 2.07.68 2.62 1.63zm-1.1 3.26c-.06.4-.04.86.14 1.41.27.9.77 1.69 1.46 2.32h.44a9.27 9.27 0 01-1.9-3.13c-.06-.2-.1-.4-.13-.6zm7.16 3.73h.18c.34-1.41 1.95-2.46 1.76-3.07l-.11-.29c-.38.83-1.56 2.24-1.83 3.36zm-8.9-32.15l.01.52v-.52zm1.33 5.6a7.12 7.12 0 01-.6-.8 4.37 4.37 0 01-.74-2.5c-.03 1.01-.01 1.81.36 2.65.25.53.58 1.03.98 1.47a7.52 7.52 0 011.75 2.96c.26-.87-.53-2.38-1.75-3.78zm4.28 4.32c.14-.2.32-.45.58-.78.43-.49.6-1.14.47-1.78-.07.36-.23.69-.47.97-1.03 1.27-.99 1.5-.57 1.59zm1.41 13.49v.02c-.43.86-.54 1.52-.42 2.03.06-.37.19-.77.42-1.24.11-.22.2-.41.28-.61.37-.86.5-1.54.4-2.06a6.55 6.55 0 01-.68 1.86zm-.16-5.55c1.19 0 2-1.05 1.65-1.86-.29.65-.94 1.06-1.65 1.04-1.02 0-1.5.95-1.25 1.7.17-.54.68-.9 1.25-.88zm.16-4.23c.52-.67.63-1.24.49-1.7-.08.27-.24.57-.49.89-.55.71-.56.96-.25 1.17l.25-.36zm-2.79-4.33c0 2.3-.5 6.13-.44 10.15 0-3.72.44-7.2.44-9.34.4 2.28.13 7.1.44 11.9.17 2.53.5 5.06 1.15 7.22.26.5.56 1 .9 1.46-1.2-2.3-1.73-5.44-1.99-8.64-.4-5.08-.09-10.34-.5-12.75zm-4.12 4.43c-.19-.51-.32-1.04-.4-1.57-.1.67.1 1.53.4 2.38.46 1.25 1.95.64 2.35 1.13.58-1.83-1.76-.32-2.35-1.94zm14.05-34.75a3.24 3.24 0 01-.68-1.79c-.1 1.06.18 2.02.68 2.6.43.52.66.92.75 1.31.14-.7-.02-1.25-.75-2.12zm3.3 15.76c-.06.22-.07.45-.03.67.1.77.66 1.46.98 2.34l.06.23.04.16c.01-.07.04-.12.04-.2a2.2 2.2 0 00-.14-1c-.2-.54-.48-1.01-.7-1.47-.12-.24-.2-.49-.25-.73zm-.15-5.93c-1.83.06-3.56-.05-4.15-2.94l-.04-.35c-.05.39-.04.78.04 1.17.05.26.13.47.2.69v.03c.72 2.16 2.3 2.27 3.95 2.22.9-.03 1.45.54 1.6 1.32.15-1.17-.4-2.17-1.6-2.14zm4.48-4.32c-.74.4-.88 1.02-.7 1.54.14-.32.39-.58.7-.73a3.6 3.6 0 001.88-3.26c0-.08-.05-.16-.07-.24a3.52 3.52 0 01-1.81 2.69zm.93 9.88c-.71-.32-.55-1.33-1.16-.85-.11.1-.17.19-.23.29-.14.23-.14.51-.04.86a.96.96 0 01.25-.32l.02-.02c.61-.48.45.54 1.16.86.72.32 1.6-1.87 1.72-3.53.01-.2 0-.42-.03-.62-.16 1.62-1 3.64-1.69 3.33zm-2.06-2.42c0-.84-.04-1.68-.17-2.5a23.82 23.82 0 00-.66-3.02l-.01.01-.15-.53c-.36-1.16-.77-2.3-1.28-3.4-.5-1.1-1.12-2.16-1.68-3.22a8.84 8.84 0 01-.66-1.67 8.15 8.15 0 01-.25-1.77c0 .6.03 1.2.15 1.79.15.59.35 1.16.61 1.71.52 1.1 1.1 2.16 1.54 3.27l.22.55.07.15c.5 1.1.92 2.24 1.28 3.4l.15.54v-.01c.3.98.52 1.99.67 3 .1.57.14 1.13.17 1.7zm-2.08-23.6c-.1.17-.2.35-.28.53-.41 1.92-.84 4.06-.76 5.68.07-1.91.65-4.3 1.04-6.21zm-6.87 60.56c-.25-2.22-1.98-2.34-2.24-3.75-.35 2.24 1.95 1.98 2.24 4.57.18 1.54 1.05 2.06 2.4 2.42h.74c-1.35-.35-2.96-1.69-3.14-3.24z"/>
  <path fill="#737373" d="M-361.1 272.44c.29-1.37.4-2.77.36-4.16a18.42 18.42 0 01-.5 4.09v.03l-.15.66c-.11.4-.25.8-.37 1.2-.6 1.87-1.38 3.7-2.1 5.56l-.12.3-.96 2.5a142.16 142.16 0 01-4.38 10.57l-.76 1.5-.06.1a4.6 4.6 0 00-.46 2.55c.03-.6.2-1.18.46-1.73l.06-.1.76-1.51c1.65-3.43 3.01-7 4.38-10.56l.96-2.5.12-.3c.84-2.16 1.75-4.29 2.38-6.49l.08-.27c.07-.23.1-.46.16-.7.06-.24.1-.5.15-.74zm-.17 13.19c-.1.24-.28.44-.52.55-1.27.7-1.99.27-2.7 2.36-.17.48-.22 1-.15 1.51.02-.22.07-.46.15-.7.71-2.09 1.43-1.66 2.7-2.35.62-.34.7-.85.52-1.37zm-4.94 18.46c0 .1.04.27.1.46.2-.58.67-1.35.4-1.85-.15.5-.47 1.04-.5 1.4zm-3.2-13.35c.06-.94-.07-1.93-.49-2.47-.54-.72-1.04-1.3-1.18-2.04-.17 1.17.46 1.89 1.18 2.85.3.39.45 1 .5 1.66z"/>
  <path fill="#737373" d="M-366.46 277.47c-.2.55-.04 1.06.58 1.5.63.45 1.01.64 1.16.97.22-1.02-.17-1.07-1.16-1.77-.25-.17-.46-.41-.58-.7zm-3.13 22.6a8.77 8.77 0 01-.63-2.53c-.07.97.14 1.94.47 2.88.5 1.1 1.13 2.13 1.82 3.12.64.93 1.33 1.84 2 2.75l-1.7-2.56a20.7 20.7 0 01-1.96-3.67zm1.5-4.37c-.18.4-.24 1-.19 1.67.03-.33.09-.63.2-.85.93-1.98 2.32-1.07 3.48-2.25.43-.44.46-.95.35-1.52a1.3 1.3 0 01-.35.7c-1.16 1.18-2.55.27-3.49 2.25zm7.43-15.61c-.3.35-.95.61-1.57.64-.62.04-.86.73-.7 1.46.1-.36.33-.62.7-.64 1-.06 2.1-.7 1.6-1.4l-.03-.06zm1.36-4.06c-.8.85-1.23.45-1.6.55a.48.48 0 00-.28.2c-.2.26-.2.65-.11 1.06a.73.73 0 01.11-.25.47.47 0 01.27-.2c.38-.1.82.3 1.61-.55.56-.6.68-1.34.6-2.1-.06.48-.27.93-.6 1.29zm-12.47 23.66l.6.34c.25-.7.43-.58-.6-1.15l-.13-.1c-.48-.33-.7-.87-.76-1.5-.09.95.08 1.84.76 2.31.04.04.08.08.13.1zm26.74-38.55l3.94-3.48-3.94 3.48zm-8.46 7.45c-.44-.16-.9-.85-1.03-1.7-.18 1.14.12 1.8.7 2l7.51-6.62-7.17 6.32zm21.63-75.57c-.11.83-.15 1.67-.13 2.51.02-.86.11-1.79.28-2.75l-.15.24zm-13.37 68.04l-.04.29.05-.04v-.28l-.01.03zm-5.22-3.38c-.06.43-.02.98.16 1.72.15.56.26 1.13.34 1.7.1-.64-.07-1.43-.34-2.51-.07-.3-.13-.6-.16-.9zm5.35-2.94a36.6 36.6 0 00-1.13-6.28c-.13-.51-.29-1-.43-1.51-.55-1.93-1.16-3.83-1.73-5.65a53.95 53.95 0 01-1.48-5.44l-.07-.47c-.2-1.08-.3-2.18-.34-3.28v.67c.01.9.1 1.78.22 2.66.06.41.1.83.2 1.24.33 1.73.88 3.55 1.47 5.44.49 1.55 1 3.16 1.48 4.79.24.78.48 1.56.68 2.36a36.42 36.42 0 011.2 7.63c0-.73-.01-1.44-.07-2.16zm-.93 3.83v.18a42.5 42.5 0 01-.22 3.08c.11-.78.2-1.54.22-2.27v-.18c.02-.69.02-1.36 0-2.02v-.03c0 .41.02.82 0 1.24zm4.48-10.1c-.04.46-.11.9-.22 1.35-.77 3.1-1.44 5.29-1.17 5.57.17-.95.64-2.64 1.17-4.75.2-.82.24-1.53.22-2.17zm-6.52 5c.23.17.39.41.45.69.12-.58 0-1.18-.45-1.5-1-.7-2 .69-2.88-.22-.54-.55-.82-1.41-.85-2.45-.14 1.43.17 2.57.85 3.26.88.91 1.88-.48 2.88.22zm-3.29-30.2c.06-.48.02-1.06-.2-1.73a8.32 8.32 0 01-.4-2.07 7.6 7.6 0 00.4 2.88c.1.33.17.64.2.92zm-1.07 12.3c.06-1.55-.2-3.56-1-4.84-.89-1.4-1.43-2.44-1.55-3.5-.13 1.39.44 2.55 1.54 4.32a8.53 8.53 0 011 4.02zm12.74-29.9c-.04.16-.06.34-.04.54l.1.8c.08-.44 0-.85-.06-1.35zm5.38-4.88v-.54a14.55 14.55 0 000 .54zm-16.57 26.63a18.25 18.25 0 013.2-7.8c1.61-2.22 4.33-4.19 6.99-6.32 2.73-2.41 5.49-5.01 6.35-7.56-3 5.43-10.21 8.79-13.35 13.06a18.3 18.3 0 00-3.19 7.8 22.92 22.92 0 00-.3 3.23v.7c.03-1.03.13-2.07.3-3.12zm12.13-12.75c.09-.46.3-.94.73-1.4.89-.97 3.49-.6 5.7-1.93 1.42-.86 1.74-1.96 1.55-2.82-.12.68-.55 1.4-1.55 2-2.21 1.34-4.81.97-5.7 1.93-.7.77-.84 1.57-.73 2.22zm7.05-8.4c.2-.56.73-1.25 1.31-2.2.31-.52.42-1.13.31-1.72-.04.32-.14.62-.3.9-.92 1.48-1.7 2.36-1.32 3.02z"/>
  <path fill="#737373" d="M-340.23 218.71c1.41-.72 1.78-1.71 1.69-2.42 0-.07-.03-.13-.04-.19-.15.6-.62 1.27-1.65 1.8-1.65.86-2.2 1.55-3.31 1.29-.15-.04-.3-.05-.45-.04-.87.08-1.5 1.05-1.93 2.98-.1.46-.19.89-.26 1.29-.14.76-.21 1.39-.14 1.76a34.35 34.35 0 01.4-2.24c.43-1.92 1.06-2.9 1.92-2.97.15-.02.3 0 .45.03 1.11.27 1.67-.43 3.32-1.28zm-3.49 7.57a2.74 2.74 0 01-1.87 1.67c-.7.2-1.68 2.37-1.54 4.41.12-1.77.93-3.42 1.54-3.6a2.7 2.7 0 001.94-1.81c.07-.28.04-.5-.07-.67zm-.61 17.49c.04-1.35.26-3.25.34-4.68.02-.25.02-.5 0-.75-.11 1.75-.4 4.17-.34 5.43zm-9.77 1.25c.72-.32.72-1.07 1.66-.54.51.3.88.88 1.03 1.69.03.11.05.22.06.35l.02-.34c0-1.24-.44-2.12-1.11-2.5-.94-.54-.94.2-1.66.53-.5.22-1.17-1.15-1.28-2.76-.12 1.92.7 3.83 1.28 3.57zm-8.3 61.86l-.16-.08c-.53-.19-1-.48-1.42-.86-.42-.39-.74-.88-.92-1.42a.98.98 0 00-.05.7c.02.07.06.12.08.18a3.86 3.86 0 002.47 2.29c.51.16.95.5 1.21.98-.2-.36-.48-1.17-.9-1.58a.9.9 0 00-.31-.22zm.74-3.79c-.01.97.04 1.97.15 3 .04.09.08.2.13.28a23.43 23.43 0 01-.28-3.28zm2.9-20.74l-.19 6.6a27.79 27.79 0 00-3.26 13.1c.06-3.4.94-7.85 3.26-12.27l.2-7.42-.01-.01zm-.28 9.86l-.06 2.1-.23 7.93c-.4.83-.58 1.74-.53 2.66l.01.23c.04-.78.24-1.47.52-2.06v-.01l.23-7.94.08-2.97v.01l-.02.05zm-1.04-7.19c.2.15.32.4.37.69.1-.64.01-1.22-.37-1.5-.51-.38-.92-.76-1.07-1.22-.26.87.28 1.45 1.07 2.03zm-3.94 17.14c.04-.22.06-.45.01-.74-.27-1.6-.88-1.33-1.49-.96-.47.29-1.61-.13-1.84-1.3-.25 1.79 1.28 2.46 1.84 2.11.6-.36 1.2-.62 1.48.89zm.51-9.01c.31.68.58.83.68 1.46.02-.08.04-.16.04-.25 0-1.17-.33-1.17-.72-2.03-.12-.27-.2-.64-.24-1.05-.07.7.04 1.42.24 1.87zM-435.83 240c-.28 7.03 3.88 9.05 6.83 11.8l-.25-1.04c-2.81-2.53-6.5-4.58-6.58-10.77zm10.63-19.22c.2.85.3 1.76.32 2.7a14.8 14.8 0 00-.18-2.8 9.38 9.38 0 00-.7-2.38c-1.55-3.35-4.52-7.59-5.94-10.24l-.8-1.23c.1 1.78 4.67 7.81 6.74 12.28.24.54.43 1.1.56 1.67zm.82 27.14c.15-1.58 1.18-3.45 2.34-5.8.77-1.55 1.6-3.32 2.24-5.35.45-1.39.6-2.9.56-4.47 0 1.24-.2 2.47-.56 3.66a40.9 40.9 0 01-2.48 5.84c-1.26 2.52-2.3 4.48-2.1 6.12zm4.4 6.95c.5-.62.8-1.31.63-2.05-.11.45-.32.88-.63 1.23a2.3 2.3 0 00-.5 1.93c.07-.4.24-.8.5-1.11zm11.23 5.07a6.89 6.89 0 011.72 2.58l.05.15c.05.14.08.28.1.41.04-.14.05-.3.04-.5v-.09c-.13-1.19-1.15-3.13-3.28-4.38-.3-.18-.62-.35-.97-.5-3.58-1.5-6.08-1.47-7.49-2.28-.13.2-.27.38-.41.53 1.3 1.13 3.95.91 7.9 2.56.86.36 1.66.88 2.34 1.52zm-10.35-9.31c.52.48.9 1.1 1.08 1.79.04.14.05.27.07.4.1-.73-.06-1.48-.45-2.12l-.7-.07zm-1.05 20.32l.03.68v-.7c-.04-2.2-.57-4.71-1.56-6.68-.69-1.36-1.63-2.83-2.62-4.48-1.71-2.88-3.55-6.34-4.42-10.92-.29-1.5-.66-3.45-.7-5.74-.06 2.64.37 4.88.7 6.55a31.32 31.32 0 003.9 10.03c1.17 2.02 2.33 3.78 3.14 5.38.88 1.73 1.39 3.89 1.53 5.89zm24.12-28.65a8.01 8.01 0 00-.8 3.94c.05-1.27.41-2.5 1.04-3.6.1-.19-.07-.36-.24-.34zm-2.97 2.18c.07-1.16.4-1.93.16-2.04a8.3 8.3 0 00-.16 2.03zm-.23 14.04c.14 1.47.54 2.9 1.19 4.21.17.09.34.18.53.25a12.19 12.19 0 01-1.6-4.52c-.04-.26-.1-.52-.13-.78 0 .28-.01.56.01.84zm1.48-11.56v.88l.1.14a8.7 8.7 0 01-.1-1.02zm9.69 2.87a6.96 6.96 0 01-3.86 1.5c-1.2.16-2.46.08-3.68-.33a26.47 26.47 0 00-.33 5.07c0-1.46.1-2.9.33-4.26 2.8.94 5.83.27 7.86-1.64.22-.2-.08-.53-.32-.34zm-8.93.46a7.77 7.77 0 01-2.72-5.61 7.83 7.83 0 002.7 6.4c.04-.23.05-.47.1-.7l-.08-.1zm5.24-8.33c-1.52 2.76-3.09 5.84-3.46 7.27l.3-.07c.62-1.6 1.9-4.1 3.16-6.38.23.2.51.34.82.37 1.2.04 2.29-1.84 2.74-4.47v.04l.05-.26c.21.08.42.13.63.19.61 1.3 1.34 2.54 2.18 3.7a14.15 14.15 0 003.1 3.09c.12-.18.25-.36.4-.52a14.36 14.36 0 01-3.5-3.38c-.64-.9-1.21-1.85-1.72-2.83-.15-.3-.32-.59-.46-.88a5.68 5.68 0 01-.63-.18l-.04.26-.01-.04-.1.51c-.51 2.35-1.52 3.99-2.64 3.95-.3-.03-.6-.16-.82-.37zm-5.68 14.48c0 .38 0 .74.02 1.11.03 1.33.15 2.62.34 3.88l.15.27a32.15 32.15 0 01-.45-4.17c-.02-.36-.05-.72-.06-1.09z"/>
  <path fill="#737373" d="M-389.51 246.46a.2.2 0 00-.16-.03 10 10 0 01-4.92 3.74 7 7 0 001.25.28c2.58-1.33 4.31-3.69 3.83-3.99zm2.41-22.9c.12-.14.22-.3.35-.44a15.77 15.77 0 01-2.53-3.22 5 5 0 01-.7-2.25c-.07.94.06 1.98.7 3.06a15.74 15.74 0 002.18 2.85zm-10.1 1.98c2.87.63 5.46-1.41 4.96-1.87a.25.25 0 00-.33 0 4.44 4.44 0 01-4.27 1.15l.04-.04c-.2-.02-.4-.03-.6-.09.05.27.12.55.2.85zm-5.26-7.39c.28 2.23 1.28 4.3 2.86 5.9l.77-.1a10.35 10.35 0 01-3.53-6c-.07.04-.12.1-.1.2zm3.01-2.06h-.1c-.6.32 1.35 1.96 1.49 5.9.09-3.1-.93-4.94-1.39-5.9zm2.14 7.26l.03-.02-.01-.47c0 .16 0 .33-.02.5zm2-.26c.4-.71.83-2.33.67-2.97-.1.74-.38 1.66-.66 2.16a5.54 5.54 0 01-1.54 1.73c.25.06.5.1.76.12.3-.31.56-.66.78-1.04zm2.1 5.97c-.1.69-.43 1.54-1.09 2.2l.39.35a3.7 3.7 0 00.7-2.55zm-4.73-3.67c.17 1.6.86 3.74 1.67 5.36.16.01.31.04.47.04a17.43 17.43 0 01-2.14-6.21c-.3.08-.61.13-.91.16l.02.02c-1.97.38-4-.24-5.44-1.66-.17-.15-.32-.3-.44-.43-.08-.05-.18-.07-.27 0-.67.46 2.84 3.8 7.04 2.72zm4.5 10.88v.14c-.02.23 0 .44 0 .66.02 1.63.27 3.06.7 4.14l.19-.32c-.46-.95-.78-2.28-.88-3.81v-.8zm-1.7-3.69c.56.61 1.16 1.18 1.8 1.71l.1-.72a19.57 19.57 0 01-1.9-1.8 6.18 6.18 0 01-2.41 1.72c-1 .57-2.13.84-3.27.75a.24.24 0 00-.26.2c-.02.12.07.24.2.26a6.33 6.33 0 005.73-2.12zm-1.12-.95l-.47-.11a7.68 7.68 0 01-3.13-1.18c-.26-.16-.53.19-.3.37a8.37 8.37 0 003.19 1.57c.26-.2.5-.41.72-.65zm2.25 25.93c.02-.73-.03-1.31-.07-1.75-.1.25.03.84.07 1.75zm-5.07 6.67a8.29 8.29 0 002.78 1.27.7.7 0 00.23.21c.32.92.92 2.41 1.68 5.1.1.13.2.25.32.36-.92-3.45-1.64-5.23-2-6.27l-.02-.02a.66.66 0 01-.21-.2 8.43 8.43 0 01-5.64-4.7c-.23-.48-.4-1-.5-1.52-.1.3-.03.91.23 1.66a8.55 8.55 0 003.13 4.11zm22.55-1.9l.05-.04a.57.57 0 01.05-.33 9.72 9.72 0 01-.37-2.34c-.04.85.04 1.76.27 2.72zm1.76-.75c1.14-4.97 4.72-6.33 4.35-6.86a.25.25 0 00-.34-.07c-.4.26-.77.58-1.14.88a10.65 10.65 0 00-3.02 5.95l.06.1h.09zm-5.2.9c-.14-.28-.68-.03-1.31.4a7.7 7.7 0 00-2.1 2.83l.54-.18c1.45-2.36 3.12-2.57 2.88-3.05zm-.47-2.14c-.12-.22-.58-.08-1.15.32a6.05 6.05 0 00-2 3.43c.1-.1.23-.25.4-.4 1.03-2.45 2.99-2.9 2.75-3.35zm-1.95-.97a6.9 6.9 0 00-.75.57 5.94 5.94 0 00-1.35 3.67l.14-.29c.3-1.42 1.09-2.7 2.25-3.57.23-.2-.03-.55-.29-.38zm14.87.78c-.27-.32-1.33.96-3.6 1.72-1.15.45-2.36.74-3.58.84.25.27.53.5.84.72 3.47-.53 6.79-2.75 6.34-3.28zm-15.15-10.45a1.75 1.75 0 01-.5-.93c-.08.39-.05.79.09 1.15.25.61.88 1.14 2.19 1.57 3 1 3.52-.5 4.18-2.36.1-.3.15-.6.19-.89 4.21 1.28 7.95 1.1 7.95 1.1s.2-.31.5-.84a26.6 26.6 0 002.02-4.75l.2-.6c.26.1.53.2.83.26 1.99.37 3.6.66 4.2-2.34.12-.62.13-1.1.08-1.5-.02.21-.03.43-.09.68-.6 3.01-2.2 2.71-4.19 2.34a4.26 4.26 0 01-.84-.25 26.23 26.23 0 01-2.4 5.68l-.31.51s-3.74.18-7.95-1.1c-.03.3-.1.6-.2.89-.64 1.85-1.18 3.35-4.17 2.36a4.36 4.36 0 01-1.78-.98zm-11.2 13.24c.44-1.53.64-3.12.6-4.7a14.94 14.94 0 01-.91 4.84l.31-.14zm8.47 3.39l.17-.05a6.93 6.93 0 01-.27-1.66c-.04.56 0 1.13.1 1.71zm17.9-1.63c-.06-.1-1.51 1.17-4.45.42a6.39 6.39 0 01-3.9-1.97c-1.8 1.64-4.65 2.74-7 3.54.35.2.69.35 1.01.46 2.11-.76 4.44-1.78 5.99-3.18 3.5 3.66 8.72 1.38 8.35.73zm-19-3.5c-.07-.05-.14-.05-.21-.03a9.7 9.7 0 01-7.54 3.9l.09.23.21.56a9.57 9.57 0 001.5-.2c4.04-.87 6.43-4.13 5.94-4.47zm-1.14-4.71a.21.21 0 00-.08-.18 10.07 10.07 0 01-5.04 7.46 9.64 9.64 0 001.53-.28 9.9 9.9 0 003.59-7zm13.26-2.66a7.95 7.95 0 00-1.46 5.03c.16-3.34 2.25-4.91 2-5.18-.1-.1-.3-.04-.54.15zm-2.02-42.49a5 5 0 00-.94 3.36c.1-1.24.64-2.4 1.53-3.25a.23.23 0 00.01-.32c-.1-.12-.33-.02-.6.21zm.49 5.08c.3-.04.59-.1.87-.17a11.02 11.02 0 002.43-7.12l-.02-.04a11.14 11.14 0 01-3.29 7.33zm.26.76l-.05.01c.45.2.91.33 1.37.43a8.06 8.06 0 004.88-4.75c.06-.18-.09-.3-.23-.3a7.92 7.92 0 01-2.95 3.4l-.05.05c-.9.59-1.9.98-2.97 1.16z"/>
  <path fill="#737373" d="M-377.52 220.75c.31-.76.55-1.56.7-2.37a8.12 8.12 0 008.98-.95c.23-.2-.07-.55-.31-.36a7.45 7.45 0 01-7.19 1.07c-.5-.15-1-.34-1.48-.58-.15.96-.52 2.03-.98 3.11l.28.08zm9.7 7.18l-.28-.1c.23.32.44.67.65 1.02a9.2 9.2 0 003.34.58c.78-.04 1.38-.27 1.63-.73.17-.29.17-.64.06-1.03-.02.07-.02.15-.06.22-.21.38-.66.6-1.26.7a8.91 8.91 0 01-4.11-.69l.04.03zm-10.25-12.7V214.92v.31zm.4 2.56c.04-.23.09-.46.11-.68a6.98 6.98 0 01-2.25-4.8 7.02 7.02 0 002.13 5.48zm-.57-9.14c-.06-.03-.13-.02-.2.01a6.39 6.39 0 00-.72 3.38c.06-1.09.4-2.15 1-3.07a.23.23 0 00-.08-.31zm-43.35 93.5a28.1 28.1 0 01-.04-1.18v1l.04.17zm1.22-18.47c.18-.8-.08-1.35-.95-2.1a3.75 3.75 0 01-1.39-2.3c-.13 1.04.23 2.1 1.39 3.1.54.48.84.87.95 1.3zm9.81 5.13c3.39-1.1 4.18-2.17 3.84-3.24-.24.8-1.31 1.6-3.83 2.43-5.37 1.75-9.63 5.16-9.96 14.88l.05-.11c.57-9 4.72-12.27 9.9-13.96zm-6.95-3.2c1.1-2.09 2.1-4.37 2.79-6.73.58-2.02.93-4.09.89-6.17l-.02-.24a21.82 21.82 0 01-1.09 6.32 37.15 37.15 0 01-2.57 6 59 59 0 01-1.75 3.07 20.26 20.26 0 00-2.77 11.05c0-3.39.88-7.12 2.77-10.23.61-1 1.2-2.03 1.75-3.07zm-6.09 17.5c-.08-.24-.24-.48-.39-.72l-.04-.07v.19l.06.17a26.71 26.71 0 002.49 6h.48c-.21-.39-.48-.88-.76-1.43a31.97 31.97 0 01-1.84-4.14zm15.51-34.4c1.09.38 1.66 1.36 1.73 3.05.11-2.21-.48-3.43-1.73-3.86-1.51-.51-2.31-.6-2.58-1.63a1 1 0 00-.06.5c.17 1.34.98 1.38 2.64 1.95zm5.36 7.17a6.7 6.7 0 01-2.17 4.83c-.77.7-1.3 1.18-1.68 1.56-.66.68-.8 1.04-.58 1.57.16-.33.53-.73 1.17-1.32l1.09-1a6.9 6.9 0 002.18-5.64zm8.72 19.32a9.99 9.99 0 01-3.08-6.3c-.02.02-.04.05-.04.1 0 2.08.78 4.19 2.15 5.92.3.1.62.2.97.28zm-20.1 6.26l-.12-.06c-.89-.41-2.8-.01-3.99 1.29a3.82 3.82 0 00-.96 2.6v.36l.1-.42c.15-.69.45-1.27.86-1.73a4.43 4.43 0 013.3-1.43c.27.02.5.06.68.15 1.4.65 2.7.9 2.88.3.05-.18-.07-.36-.26-.55-.46.2-1.43-.04-2.48-.5v-.01zm13.95-10.2c-.47.14.45 2.66 2.89 4.61.08-.12.17-.24.24-.37l.1-.16a9.05 9.05 0 01-3.23-4.08zm-18.88 17.4v-.13.14zm33.4-15.87c.3-.58.55-1.2.72-1.83.04-.15-.06-.25-.18-.28a10.71 10.71 0 01-3.01 4.52c.39-.1.77-.22 1.15-.37.53-.63.96-1.32 1.32-2.04z"/>
  <path fill="#737373" d="M-399.25 299.77c-2.97.82-5.79-.58-6.46-.02-.67.57-1.61.35-3.86-.6-.34-.15-.7-.25-1.07-.3-1.8-.31-3.27.48-2.79.99l.22.19c.33-.23.88-.4 1.58-.44.62-.02 1.33.06 2.06.37 2.25.95 3.19 1.17 3.86.6.67-.56 3.49.84 6.46.03 1.98-.54 2.3-2.43 2.59-4.24 1.06.72 2.26 1.23 3.51 1.5l.08-.78c-1.29-.27-2.5-.8-3.59-1.53-.3 1.8-.61 3.7-2.59 4.24zm8.62-5.8l.05-.05a142.38 142.38 0 00.21-8.24 154.5 154.5 0 01-.26 8.3zm-12.32-23.36c-.05.72-.07 1.44-.06 2.15l.1-2.06c.07-.92.1-1.97.1-3.14-.02 1.15-.08 2.17-.13 3.05zm12.96 2.65c.07.38.1.77.12 1.16.02-.45 0-.9-.06-1.36a.2.2 0 00-.06.2z"/>
  <path fill="#737373" d="M-377.93 269.93a4.73 4.73 0 01-3.27-.15 5.3 5.3 0 01-3.25-2.39l-.1-.15-.26.08c-1.7.52-2.29.64-2.93.94a7.16 7.16 0 00-3.89 5.35c.03.14.05.28.09.41.4-1.95 1.76-4 3.8-4.95.68-.3 1.27-.43 3.18-1.02 2.18 3.79 7.18 2.78 6.93 2.03a.24.24 0 00-.3-.15zm-20.47 10.18a7.5 7.5 0 01-2.15-3.94c-.24.89.59 3.63 2.8 5.31a6.83 6.83 0 005.33 1.25 67.54 67.54 0 000-.81c-2.7.4-4.66-.53-5.98-1.81z"/>
  <path fill="#737373" d="M-378.8 268.61c.52-.2.82-.44.76-.59-.16-.4-1.16.32-2.73.17-.19-.02-.4-.06-.6-.11-.5-.04-.98-.14-1.45-.3.41.48.92.85 1.49 1.12a6.08 6.08 0 002.52-.29zm-16.76 3c.2.09.36.19.58.27a5.79 5.79 0 01-1-2.64c-.02.03-.04.05-.04.1-.02.76.15 1.53.46 2.27zm10.64 3.27a7.77 7.77 0 01-4.32 6c.33.1.67.17 1 .23 2.77-1.89 3.48-5.04 3.32-6.23zM-381.33 278.48h-.03a7.51 7.51 0 01-9.08 3.52 26.28 26.28 0 00-.02 0l.02.82c6.1 2.06 9.98-3.93 9.12-4.34zM-389.6 279.48c.42-1.2.6-2.48.55-3.76a10.2 10.2 0 01-.94 3.92l.39-.16zm-5.03 1.09c.3.02.6.05.93.02a8.73 8.73 0 01-3.13-5.04c-.23.7.45 3.16 2.2 5.02zm1.95-.97l.1.06a48.44 48.44 0 00-.9-6.03 7.23 7.23 0 01-5.33-4.36c-.56.47 1.26 4.4 5.33 5.17.36 1.7.63 3.43.8 5.16zm10 12.9a12.49 12.49 0 01-3.63 3.31c-1.4.78-2.96 1.25-4.55 1.4-.3 3.55-.68 7.91-1.1 11.46.42-3.55.8-7.1 1.1-10.66 1.6-.13 3.14-.6 4.54-1.39a12.99 12.99 0 002.96-2.44c.7-.78 1.12-1.46.87-1.64a.21.21 0 00-.2-.04zm-5.1-2.88a13.15 13.15 0 01-1.38 4.7c.19-.12.36-.26.54-.39.3-.82.54-1.66.7-2.52.14-.74.19-1.39.14-1.79zm-19.87-49.38c.52-.35 2.76-1.5 3.21-1.81.39-.27.27-.64-.07-.77-.55.36-2.63 1.43-3.14 1.77-.53.35-.52.83-.48 1.01l.1.24c.06-.15.17-.3.38-.44zm-6.52.31l.06-.13c.24-.62-.2-.8-.2-.8l-2.9-1.8-.3-.15c-.14.05-.26.12-.31.29-.14.43.49.6.61.67a470.7 470.7 0 013.04 1.92zm2.63 1.5c-.62.65-2.78 2.12-2.97 2.22-.2.11-.4.23-.71.04l-.02-.02-.07.2s-.22.44.09.63c.3.2.51.08.7-.03.2-.1 2.36-1.57 2.98-2.22 0 0 .36-.4.93 0 .56.4 1.95 1.54 2.92 2.07 0 0 .44.44.86.21 0 0 .38-.13.15-.63l-.1-.2-.05.02c-.42.22-.86-.21-.86-.21-.96-.53-2.36-1.68-2.92-2.08-.57-.4-.93 0-.93 0zm-32.3 13.1l.05-.14c.24-.62-.2-.8-.2-.8l-2.9-1.8-.3-.15c-.13.05-.26.12-.31.29-.14.43.49.6.62.67l2.9 1.8s.07.05.13.12zm9.66-2.9c-.56.36-2.64 1.43-3.15 1.77-.53.35-.52.83-.48 1.01l.1.24c.08-.18.21-.33.38-.44.53-.35 2.77-1.5 3.22-1.81.38-.27.26-.64-.07-.77zm-2.28 6.65l-.05.03c-.42.22-.86-.21-.86-.21-.67-.4-1.32-.85-1.94-1.34l-.98-.74c-.57-.4-.93 0-.93 0l-.39.38a56.91 56.91 0 01-3 2.56l.24.19.02-.01.16-.08c.19-.1 2.35-1.57 2.97-2.23 0 0 .36-.4.93 0 .56.4 1.95 1.55 2.92 2.08 0 0 .44.44.86.2 0 0 .38-.12.15-.62l-.1-.2zm-13.13-47.2a8.31 8.31 0 011.7 3.67c.18-1.62-.93-3.5-1.7-4.49h-3.73l.46.81h3.27zm-4.42 7.95c-.37.46-.7.95-1 1.46-.33.58-.5 1.16-.4 1.75v.05c.12-.56.44-1.1.84-1.68l.56-.77c.74-.98 1.58-2.1 1.93-3.49.13-.5.16-1.02.13-1.53-.03.24-.07.48-.13.72a10.12 10.12 0 01-1.93 3.49zm.29-4.28c.19-1.62-.94-3.5-1.7-4.49h-5.05l-.44-.01a1.1 1.1 0 01-1.12-1.08l-.05-.5-.01-.32-.02.33c0 .27 0 .53.03.8l.05.5c.01.61.51 1.1 1.12 1.09h5.49a8.35 8.35 0 011.7 3.68zm8.04-3.68h1.92a8.3 8.3 0 011.7 3.68c.19-1.62-.94-3.5-1.7-4.49h-3.74c.16.25.32.53.47.82h1.35zm.2 11.45l-.02-.23c-.03.22-.03.45-.01.69 0 .12 0 .23.03.36.22 1.24 1.06 2.36 1.88 3.44.71.94 1.39 1.85 1.57 2.7.25-1.09-.62-2.27-1.57-3.51-.7-.94-1.4-1.9-1.73-2.95-.05-.16-.12-.33-.15-.5zm-2.7-3.5c-.77 1.03-1.43 1.93-1.43 2.89 0 .1 0 .22.03.33l.01.05.1-.35c.23-.68.74-1.36 1.29-2.1.74-.98 1.58-2.1 1.93-3.49.14-.5.16-1.02.13-1.53-.03.24-.07.48-.13.72-.35 1.38-1.19 2.5-1.93 3.49zm5.83.82c.58-.77 1.21-1.63 1.63-2.63.35-.75.5-1.57.43-2.4a5.19 5.19 0 01-.67 2.1c-.4.74-.87 1.45-1.39 2.12-.85 1.14-1.6 2.13-1.4 3.21l.01.05c.16-.8.74-1.58 1.4-2.45zm-1.1 18.87c.48 0 .87-.38.87-.85a9 9 0 011.2-4.66c.3-.62.63-1.28.94-2.1.2-.54.25-1.07.19-1.58-.03.25-.1.5-.2.77-.27.71-.58 1.41-.93 2.1a9 9 0 00-1.2 4.66c0 .47-.4.85-.87.84a.85.85 0 01-.85-.74l-.02.7c0 .48.39.86.86.86zm-2.82-7.6c.2-.55.25-1.08.2-1.59-.04.25-.1.5-.2.77-.28.71-.6 1.41-.94 2.1-.7 1.42-1.2 2.46-1.2 4.66 0 .47-.4.85-.87.84a.85.85 0 01-.85-.74c-.01.23-.03.46-.03.7.01.48.4.86.88.85.48 0 .87-.37.87-.84 0-2.2.5-3.24 1.2-4.66.3-.62.63-1.28.94-2.1zm-7.42-1.63c.25-1.09-.63-2.27-1.57-3.51-.82-1.09-1.66-2.2-1.88-3.45-.02-.08-.01-.15-.02-.23-.04.33-.04.68.02 1.05.21 1.23 1.06 2.36 1.88 3.44.71.94 1.38 1.85 1.57 2.7zm1.59.8c-.31.82-.64 1.49-.94 2.1a9 9 0 00-1.2 4.67c0 .47-.4.85-.87.84a.85.85 0 01-.85-.74c-.01.23-.03.46-.03.7.01.48.4.86.87.85h.01c.48 0 .87-.37.87-.84a9 9 0 011.2-4.66c.3-.62.63-1.28.94-2.1.2-.54.25-1.07.19-1.58-.03.25-.1.5-.2.77zm4.24-.8c.25-1.09-.63-2.27-1.57-3.51-.82-1.09-1.67-2.2-1.88-3.45l-.02-.24c-.04.34-.04.69.02 1.05.21 1.25 1.06 2.37 1.88 3.45.71.94 1.38 1.84 1.57 2.7zm10.95-18.4l.44-.01c.54 0 .97-.38 1.08-.87l.07-.72c.02-.26.03-.53.03-.8l-.02-.33v.32l-.09.71c-.1.51-.55.87-1.07.87l-.44.01h-4.76c.16.25.32.53.47.82h4.3zm115.44 19.94a45.76 45.76 0 01-8.63 1.03c-2.81 0-5.6-.57-8.19-1.69a10.47 10.47 0 01-3.18-2.02c-.1.1-.21.2-.31.32v.1c0 .1 0 .1.1.2l.1.1c.48.52 1.3 1.1 2.34 1.66a19.97 19.97 0 009.14 2.14c2.45 0 5.47-.5 8.2-1.1h.01l.44-.75h-.02zm-16.38-3.78c0 .15.03.28.09.41a1.15 1.15 0 012.1 0c.05-.13.09-.26.09-.4a1.13 1.13 0 00-1.14-1.1c-.62-.01-1.12.48-1.14 1.1zm8.93 16.66c-5.26-.11-9.88-2.13-11.38-3.68l-.32.32v.1c0 .1 0 .1.1.2l.1.1c1.41 1.56 5.67 3.66 11.03 3.78h.03l.47-.82h-.03zm-6.63-5.06c.46 0 .87.28 1.05.7.05-.13.09-.27.09-.41a1.13 1.13 0 00-1.14-1.1c-.62-.01-1.12.48-1.14 1.1 0 .14.04.28.09.4.18-.42.6-.69 1.05-.69zm-82.78-23.88c-.08 0-.15-.05-.22-.08a.46.46 0 00-.26.5c.05.26.3.43.56.39l3.39-.56.33-.05c.15.24.35.46.6.63l.34-.65c-.08-.04-.17-.05-.25-.1a2.39 2.39 0 01-.69-.7l-3.72.61h-.08zm4.4-3.39l-.68-2.01a.46.46 0 00-.12.47l.6 1.75c.08-.06.13-.16.2-.2zm1.35 3.75l-1.46 2.82a.5.5 0 01-.66.2c-.04 0-.07-.04-.1-.06l-.12.24a.47.47 0 00.22.64c.07.04.14.05.22.05a.5.5 0 00.44-.26l1.46-2.82c.45-.02.89-.19 1.24-.47l3.2 1.52a.5.5 0 00.65-.21.46.46 0 00-.2-.62.5.5 0 01-.46.02l-3.19-1.53c-.35.3-.79.46-1.24.48zm4.86-3.25a.46.46 0 00.22-.62l-.01-.02a.46.46 0 00-.2-.19l-.01.01-2.94 1.47c.08.27.07.53.03.8l2.91-1.45zm-2.88 2.07c0-.18 0-.35-.05-.53-.03.15-.05.3-.11.45l.16.08zm47.84-4.35l-.69-2.01a.46.46 0 00-.12.47l.6 1.75c.08-.07.13-.16.2-.21zm4.34 1.43l1.86-.94a.47.47 0 00.22-.62l-.01-.02a.46.46 0 00-.2-.18h-.01l-1.4.7-1.54.78c.08.26.07.53.03.8l1.05-.53zm1.79-.27c0-.17-.01-.35-.05-.52-.04.15-.06.3-.12.45l.17.07zm-10.54 2.22c-.08 0-.15-.04-.22-.07a.46.46 0 00-.26.5c.05.26.3.43.56.38l3.72-.6c.15.24.35.46.6.63l.34-.65c-.08-.04-.17-.05-.25-.1a2.06 2.06 0 01-.69-.7l-3.72.6-.08.01zm10.18 2.23a.5.5 0 00.66-.22.46.46 0 00-.2-.62.5.5 0 01-.46.03l-2.42-1.16-.77-.37c-.35.29-.79.46-1.24.48l-1.47 2.82a.5.5 0 01-.65.2c-.04-.01-.07-.04-.1-.06l-.12.24a.46.46 0 00.22.64c.07.04.14.05.22.05.18 0 .35-.1.43-.26l1.47-2.82c.45-.02.89-.19 1.24-.48l.47.23 2.72 1.3zm-78.23 12.25a.52.52 0 01-.22-.05c-.04-.01-.07-.04-.1-.07l-.12.25a.46.46 0 00.22.64.5.5 0 00.65-.21l1.11-2.14.05-.09.1-.2.2-.4c.46-.02.9-.18 1.25-.47l.14.07 3.05 1.46a.5.5 0 00.66-.22.46.46 0 00-.2-.62.5.5 0 01-.46.03l-2.37-1.14-.82-.4c-.35.3-.79.46-1.25.48l-.2.4-.36.7-.16.3-.74 1.42a.5.5 0 01-.43.27zm3.72-4.33l.16.07c0-.17 0-.35-.05-.52-.03.15-.05.3-.11.45zm3.25-2.64a.47.47 0 00-.2-.19l-.01.02-2.94 1.47c.08.26.07.53.03.8l2.9-1.46a.47.47 0 00.22-.64zm-7.02 2.92l-.26.04-3.46.57h-.08c-.08 0-.15-.04-.22-.07a.46.46 0 00-.26.4v.1c.05.26.3.43.56.38l.8-.13 2.92-.47c.15.24.35.46.6.63l.1-.21.24-.45c-.08-.03-.18-.04-.25-.09a2.06 2.06 0 01-.69-.7zm-.2-4.31l.6 1.74c.07-.06.12-.15.2-.2l-.68-2.02a.46.46 0 00-.11.48zm64.52 54.97c0-.15-.05-.28-.09-.41a1.7 1.7 0 01-1.65 1.27 1.7 1.7 0 01-1.65-1.27c-.04.13-.09.26-.09.4 0 .93.78 1.69 1.74 1.69s1.74-.75 1.74-1.68zm40.1-59.2a2.18 2.18 0 002.18 2.55c1.23 0 2.23-.97 2.23-2.15 0-.14-.02-.28-.04-.4a2.2 2.2 0 01-2.18 1.73 2.2 2.2 0 01-2.18-1.74zM-406 292.84a2.2 2.2 0 01-2.19-1.74c-.02.13-.04.26-.04.4 0 1.19 1 2.15 2.23 2.15 1.22 0 2.22-.96 2.22-2.15 0-.14-.02-.27-.05-.4a2.2 2.2 0 01-2.18 1.74zm-25.46-26.92a1.7 1.7 0 01-1.66-1.28c-.03.14-.08.26-.08.4 0 .94.78 1.69 1.74 1.69s1.74-.75 1.74-1.68c0-.15-.05-.28-.09-.41a1.7 1.7 0 01-1.65 1.28zm97.63-44.23c0-.15-.05-.28-.08-.41a1.7 1.7 0 01-3.3 0c-.04.13-.1.26-.1.4 0 .93.79 1.68 1.75 1.68s1.73-.75 1.73-1.68z"/>
  <path fill="#FFF" d="M-433.32 196.87l-.29.47-.1.16a.46.46 0 00-.08.25c0 .22.18.4.4.43.02 0 .03.02.05.03l.13-.01.12-.01c12.16-1.1 18.11-12.86 18.11-12.86s10.8 8.84 22.87 11.9a29.68 29.68 0 007.65 1.03c13.02 0 23.18-8.79 28.05-13.98 1.02-1.09 2-2.22 2.9-3.4l.14-.16c.02-.06.04-.11.04-.18a.49.49 0 00-.04-.18l-.13-.17c-1.7-2.2-11.73-14.59-26.15-16.98-1.6-.26-3.2-.4-4.81-.4-14.12 0-29.18 11.86-30.42 12.86l-.1.08-.16-.3c-.83-1.5-5.3-8.95-13.57-11.66-1.4-.47-2.85-.77-4.31-.9h-.06l-.17-.02h-.08c-.25.02-.48.25-.46.47.04.2.2.42.2.42l.2.34.3.5c1.77 3.02 5.04 9.48 5.04 15.94l-.02.6c-.2 6.55-3.6 12.98-5.25 15.73zm63.2-18.64a4.89 4.89 0 01-4.9 4.2 4.88 4.88 0 01-4.9-4.2c-.02-.2-.06-.4-.06-.6a4.87 4.87 0 014.95-4.79 4.88 4.88 0 014.97 4.79c0 .2-.04.4-.06.6zm-2.28 125.06c-.97-.13-1.68-.54-1.86-1.32-.12-.5-.02-1.16.41-2.02l.01-.03c.32-.58.54-1.2.67-1.85.17-1.04-.23-1.68-1.22-2-.4-.1-.72-.41-.86-.81-.26-.76.23-1.7 1.25-1.7.8 0 1.43-.48 1.65-1.04.2-.48.1-1.02-.49-1.36-.56-.34-1-.48-1.25-.65-.3-.2-.3-.46.25-1.17.26-.32.4-.62.49-.9.23-.83-.22-1.45-.93-1.77-.35-.16-.72-.17-.96-.23-.42-.1-.46-.32.58-1.6.23-.27.39-.6.46-.96.28-1.42-1.05-2.9-2.32-3.95-.31-.26-.63-.5-.9-.7-1.67-1.17-1.56-.75-3.44-3.53l.01.83v.51c-.01.68-.04 1.26-.02 1.79.02.88.17 1.63.73 2.5.19.27.39.54.61.79 1.22 1.4 2 2.9 1.75 3.78-.14.46-.57.75-1.42.71-1.71-.07-2.1.87-1.95 2.07.06.5.21 1.03.4 1.57.6 1.61 2.92.11 2.35 1.94-.07.22-.18.5-.35.84-1.55 3.1-1.33-.32-2.66.21-.45.18-.73.82-.83 1.61-.04.36-.06.72-.03 1.08.08 1.36.6 2.8 1.63 3.3 2 .96 2.08.68 2.63 1.63.23.4.22.73.1 1.03-.33.8-1.44 1.5-1.2 3.05.02.19.06.38.13.6.3.92 1.2 2.48 1.9 3.12h5.12c.27-1.12 1.45-2.52 1.83-3.35.1-.22.15-.4.11-.52-.28-.85-.78-1.28-2.38-1.5zm-1.74 3.91c-.34-.46-.64-.95-.9-1.45-1.2-2.28-1.74-4.98-1.94-7.7a36.3 36.3 0 01-.1-2.08c-.06-4.02.45-7.85.45-10.15.41 2.41.1 7.67.5 12.75.26 3.2.8 6.33 1.99 8.64z"/>
  <path fill="#FFF" d="M-358.74 263.52c-.47-.15-.84-.5-1.02-.97-.2-.52-.05-1.13.68-1.55 1-.55 1.68-1.55 1.82-2.68.02-.2.06-.38.06-.58 0-1.13-2.8-2.75-4.62-4-.25-.17-.48-.33-.68-.49-.55-.42-.78-1.2-.82-2.17-.08-1.61.35-3.76.76-5.68l.22-1.04.06-.3-.15.28c-.8 1.52-1.4 3.47-3.33 5.33-.5.48-.91 1.06-1.2 1.7a4.74 4.74 0 00-.41 2.34c.06.73.3 1.36.67 1.79.73.87.9 1.42.75 2.12-.05.25-.14.51-.26.82-.41 1.1-1.74 1.7-1.52 3.6 0 .12 0 .23.03.35.59 2.9 2.32 3 4.15 2.95 1.2-.04 1.76.96 1.6 2.13-.1.69-.39 1.33-.84 1.85-.64.76-.74 1.37-.62 1.94.06.25.14.5.26.73.22.46.5.93.7 1.47.14.38.18.72.15 1.01l-.05.19c-.17.74-.82 1.14-1.31 1-.26-.09-.47-.26-.67-.4-.35-.26-.7-.4-1.32.23-.14.14-.26.27-.36.4-.46.57-.64 1.1-.45 1.58.1.25.28.48.59.7.98.7 1.37.76 1.15 1.77l-.05.2c-.33 1.23-1.77 2.52-2.82 2.46-1.05-.05-1.16-1.6-2.7.91-.75 1.22-.92 2.04-.78 2.72.14.74.63 1.32 1.18 2.03.41.56.54 1.54.48 2.48-.09 1.43-.63 2.73-1.33 2.18-1.16-.9-.97-.07-1.66 2.2-.22.7-.31 1.43-.26 2.17.06.62.28 1.16.76 1.5l.13.1c1.03.56.86.44.6 1.15a3.24 3.24 0 00-.22 1.64c.26 1.4 2 1.53 2.24 3.75.18 1.55 1.79 2.89 3.15 3.24h2.76a11.72 11.72 0 01-2.83-4l-.04-.12a1.4 1.4 0 01-.1-.45c.03-.36.35-.9.51-1.4.17-.53.16-1.03-.62-1.22-1.06-.27-1.84-2.41-1.96-4.1-.04-.68.01-1.29.2-1.68.93-1.98 2.32-1.07 3.48-2.24.19-.2.31-.44.35-.71.15-.76-.28-1.65-.4-2.69a3.4 3.4 0 01.16-1.52c.72-2.09 1.43-1.66 2.7-2.35.24-.12.42-.32.52-.56.3-.75-.43-1.75-1.01-2.28a2.2 2.2 0 01-.65-1.16c-.15-.72.07-1.42.7-1.45.62-.04 1.27-.3 1.57-.65.18-.22.23-.48.04-.74a4.42 4.42 0 01-.67-1.5c-.09-.42-.08-.81.12-1.07a.47.47 0 01.27-.2c.37-.1.8.3 1.6-.55.33-.35.54-.8.6-1.28.06-.53-.01-1.08-.16-1.6l-.08-.25a7.41 7.41 0 00-.25-.67 9.4 9.4 0 01-.38-1.04c-.1-.35-.1-.63.04-.86a.9.9 0 01.24-.29c.6-.48.44.54 1.16.85.69.31 1.53-1.7 1.69-3.33l.02-.2c.1-1.65-1.22-3.47-2.32-3.84zm-8.88 40.21c.55.86 1.13 1.7 1.7 2.56-.68-.9-1.37-1.81-2.01-2.75-.7-.98-1.3-2.03-1.83-3.12-.03-.09-.08-.16-.12-.24-.4-.9-.64-1.86-.72-2.84a4.6 4.6 0 01.46-2.54l.06-.11.76-1.5c1.65-3.44 3.01-7 4.38-10.56l.96-2.51.12-.3c.72-1.86 1.5-3.69 2.1-5.56.12-.4.26-.8.37-1.2l.15-.65v-.04a18.34 18.34 0 00-.14-9.04 29.27 29.27 0 00-1.17-3.63l-.2-.56c-.46-1.11-1.03-2.17-1.55-3.27a9.11 9.11 0 01-.6-1.7c-.12-.6-.17-1.2-.16-1.8.02.6.09 1.2.25 1.77.15.58.39 1.13.66 1.67.55 1.06 1.18 2.11 1.68 3.22.5 1.1.92 2.24 1.28 3.4l.15.53h.01c.29.98.5 1.99.66 3 .13.83.17 1.67.17 2.5v.14a18.43 18.43 0 01-.49 3.92c-.05.23-.09.46-.15.68-.06.25-.15.5-.22.75l-.02.05a61.1 61.1 0 01-1.75 4.89l-.44 1.14-2.25 5.68-.41 1.05a79.64 79.64 0 01-2.95 6.63l-.66 1.22-.2.38c-.27.51-.44 1.07-.48 1.64-.03.3-.03.61 0 .91.08.87.3 1.72.63 2.53.5 1.29 1.2 2.49 1.97 3.66zm25.18-48.62c-.26.28-.42.36-.5.28-.27-.28.4-2.47 1.17-5.57.12-.48.18-.93.22-1.35.02-.24 0-.45 0-.68-.04-2.62-1.6-3.87-2.33-3.26-.3.25-.42-.1-.45-.76-.06-1.26.23-3.68.34-5.43v-.07c.17-2.67-1.21-3.37-1.82-2.88-.47.37-.74 0-1.01-1.18-.09-.36-.17-.78-.26-1.28l-.06-.57c-.13-2.04.84-4.21 1.55-4.4.73-.2 1.55-.76 1.87-1.68l.07-.15c.27-1.01-.83-1.33-1.94-.69-.44.26-.66.13-.73-.26-.07-.37 0-1 .14-1.76l.26-1.3c.43-1.92 1.06-2.9 1.92-2.97.15-.01.3 0 .45.04 1.11.26 1.66-.43 3.32-1.29 1.03-.53 1.5-1.2 1.64-1.8.08-.32.07-.66-.04-.98-.05-.15-.1-.3-.12-.45-.11-.65.03-1.45.73-2.22.89-.96 3.49-.59 5.7-1.92 1-.6 1.43-1.33 1.55-2a2.06 2.06 0 00-.67-1.96c-.12-.1-.2-.2-.26-.3-.38-.66.4-1.54 1.31-3.02.17-.27.27-.58.3-.9.23-1.48-.9-3.06-1.4-4.12a6.9 6.9 0 01-.5-2.63v-.07a16.76 16.76 0 01.27-3.56c-.45.65-.85 1.33-1.2 2.04a13.57 13.57 0 00-1.4 6.24V201.41c-.13 3.1-2.5 3.3-3.53 2.7-1.1-.64-2 .1-1.88 1.28 0 .1.02.18.03.28.06.49.14.9.07 1.35-.07.46-.31.96-.93 1.63-1.33 1.45-3.1 2.78-4.48 1.55-1.38-1.22-2.32.65-2.76 2.41-.44 1.76-.67 3.2-1.22 2.35s-1.05-1.01-1.94.59a6.83 6.83 0 00-.6 5.99c.21.67.26 1.25.2 1.73-.19 1.5-1.39 2.07-1.8 1.42-.56-.85-.72-1.7-1.5.38-.3.8-.4 1.49-.32 2.16.11 1.06.66 2.1 1.54 3.5.8 1.28 1.07 3.3 1 4.84 0 .26-.03.53-.07.79-.1.82-.32 1.4-.6 1.43-.83.1-1.16-.8-2 1.44a5.45 5.45 0 00-.27 2.22c.1 1.6.78 2.98 1.28 2.76.71-.32.71-1.07 1.65-.54.68.39 1.12 1.27 1.1 2.5 0 .55-.08 1.1-.21 1.62-.2.72-.28 1.46-.25 2.2.04 1.04.32 1.9.85 2.45.89.9 1.88-.48 2.88.21.46.33.58.93.46 1.51-.14.67-.6 1.3-1.29 1.38-1.08.14-1.71.63-1.54 2.14.03.27.07.57.16.9.27 1.1.44 1.89.34 2.52-.11.69-.53 1.19-1.5 1.66-1.88.9-2.5.48-3.04 3.05-.08.35-.09.72-.03 1.07.12.87.58 1.55 1.03 1.71l7.18-6.32.05-.44c.12-.96.2-2.34.23-3.08v-.18-1.23-.8a42.49 42.49 0 00-1.34-9.58l-.03-.13c-.4-1.57-.86-3.12-1.35-4.66-.63-1.98-1.25-3.84-1.7-5.64l-.2-.87a25 25 0 01-.53-5.13v-.7c.02-1.07.12-2.15.3-3.22a18.27 18.27 0 013.19-7.8c3.13-4.28 10.35-7.64 13.35-13.06-.87 2.54-3.62 5.14-6.36 7.55-1.78 1.57-3.55 3.05-4.78 4.39a18.1 18.1 0 00-3.99 7.52 23.7 23.7 0 00-.82 6.76v.14c.04 1.11.16 2.2.34 3.28l.07.48c.35 1.73.9 3.55 1.48 5.44.58 1.82 1.18 3.71 1.73 5.64l.44 1.51c.56 2.06.94 4.16 1.13 6.28.05.72.07 1.44.07 2.16v.6c-.03.95-.1 1.86-.2 2.75v1.26l.18-.36h.01l3.95-3.5.2-.17.03-.03c-.13-2-.66-3.3-1.58-2.34z"/>
  <path fill="#FFF" d="M-360.91 281.64c-.33.54-.37.97-.24 1.35.15.46.56.84 1.07 1.22.38.28.46.86.37 1.5a4.17 4.17 0 01-1.2 2.4c-.94.75-1.27-.27-2.16.64-.6.62-.76 1.66-.68 2.53.03.4.12.78.24 1.05.39.86.72.86.72 2.04 0 .08-.03.16-.04.24-.2 1.03-1.63 1.64-2.5 1.1-.94-.6-1.33.05-1.94 2.19-.13.4-.15.84-.07 1.26.23 1.17 1.37 1.59 1.84 1.3.6-.37 1.22-.64 1.5.96.04.25.03.5-.03.74-.2.98-1.2 1.34-.92 2.26l.05.1c.18.54.5 1.03.92 1.42.4.38.89.67 1.41.86l.16.08c.12.04.22.12.32.21.41.4.7 1.22.9 1.58h1.35l.01-.2.03-.69c.01-.76 0-1.75-.05-2.65l-.01-.23c-.05-.92.13-1.83.53-2.66l.23-7.94.05-2.1.03-.86a31.1 31.1 0 00-1.9 5.28 25.34 25.34 0 00-.46 9.75l-.14-.29c-.4-.9-.66-2.29-.7-4.02a27.8 27.8 0 013.27-13.1l.18-6.61.03-.8c-.04-.03-.1-.04-.13-.07-.66-.54-1.32-1.02-2.04.16zm-74.54-45.65a20.45 20.45 0 00-.38 4.01c.07 6.2 3.77 8.24 6.59 10.77l.25.22a27.12 27.12 0 01-1.05-6.64c-2.55-1.5-4.74-2.83-5.41-8.36zm50.92 57.47c-.7.56-1.49 1-2.32 1.33l-.1.04c-.39.15-.77.27-1.17.38a10.7 10.7 0 003.02-4.53c.06-.18.14-.35.18-.53.08-.28-.33-.42-.45-.15a9.7 9.7 0 01-3.25 3.94c-.18.12-.35.26-.54.37a13.17 13.17 0 001.38-4.69c.06-.74-.01-1.24-.25-1.27-.45-.05-.25.91-.8 2.5-.4 1.12-1 2.16-1.75 3.07l-.05.06a154.31 154.31 0 00.26-8.3v-.42c0-.83-.03-1.64-.07-2.44 0-.28 0-.56-.02-.82a25.29 25.29 0 00.02 0 7.5 7.5 0 009.08-3.52c.19-.42.21-.73.04-.81a.24.24 0 00-.32.1 6.32 6.32 0 01-7.6 3.1 7.77 7.77 0 004.31-5.99c.09-.77-.03-1.28-.26-1.3a.24.24 0 00-.25.23 6.4 6.4 0 01-4.16 5.67c-.13.05-.25.11-.4.15a10.21 10.21 0 00.47-7.3c-.09-.27-.52-.17-.46.12.04.2.04.4.06.61.2 1.75-.1 3.52-.88 5.1a50.41 50.41 0 00-.73-4.14l-.09-.4a7.18 7.18 0 013.89-5.36c.64-.3 1.23-.42 2.93-.94l.25-.08.1.15a5.3 5.3 0 003.27 2.39c1.92.5 3.71-.06 3.56-.51a.24.24 0 00-.3-.15 4.72 4.72 0 01-4.89-1.33c.5.16.98.25 1.45.29l.16.01c1.86.13 3.3-.56 3.18-.88-.2-.5-1.61.7-3.81-.06a5.73 5.73 0 01-1-.46c2.34-.8 5.2-1.9 6.99-3.54a6.37 6.37 0 003.8 1.95l.1.02c2.44.3 4.56-.74 4.46-1.19v-.04h-.01c-.1-.07-1.58 1.19-4.55.4a5.57 5.57 0 01-2.65-1.58c1.23-.08 2.47-.41 3.57-.84 2.27-.87 3.94-2.15 3.61-2.53-.39-.47-2.37 2.35-7.25 2.24h-.09a.48.48 0 00-.06-.1 10.65 10.65 0 013.03-5.95c.92-.93 1.65-1.38 1.47-1.63a.24.24 0 00-.33-.06 12.58 12.58 0 00-4.96 6.24 9 9 0 01-.12-1.22c-.1-1.8.41-3.57 1.45-5.03.37-.54.64-.85.54-.96-.46-.48-3.12 2.52-2.95 6.75.03.75.13 1.53.37 2.34a.56.56 0 00-.05.33l-.05.05c-1.56 1.44-4.18 2.47-6.32 3.18l-.53.18a7.7 7.7 0 012.09-2.81c.85-.7 1.47-.92 1.32-1.23-.29-.58-2.28 1.08-3.23 2.02l-.4.41c.4-1.8 1.28-2.8 2-3.43.72-.62 1.29-.87 1.15-1.13-.32-.6-2.88 1.33-3.91 3.79-.04.1-.1.2-.13.3a5.94 5.94 0 012.38-4.7c.24-.18-.03-.53-.28-.37a6.79 6.79 0 00-3.12 6.06c.03.56.1 1.11.27 1.67l-.17.05c-.56.16-1.12.32-1.68.5a7.57 7.57 0 00-5.11 4.46 63.73 63.73 0 00-2.05-6.22 9.71 9.71 0 007.53-3.9c.25-.4.34-.7.2-.8-.57-.39-1.2 2.16-4.71 3.12-.46.12-.97.22-1.54.28a10.06 10.06 0 005.05-7.46c.02-.22.06-.42.07-.64.02-.3-.43-.33-.48-.04a9.3 9.3 0 01-5.74 7.3l-.32.15c.57-1.56.88-3.19.91-4.84.03-1.17-.07-2.15-.24-2.75-.1-.42-.25-.66-.4-.64-.24.03-.22.35-.17.94v.02c.05.44.1 1.02.08 1.75a11.9 11.9 0 01-1.16 4.62 30.54 30.54 0 01-.72-5.42l-.04-.68c-.04-1.73.06-3.46.33-5.07a7.98 7.98 0 007.86-1.64c.22-.2-.09-.53-.32-.35a6.93 6.93 0 01-6.53 1.16c2.37-.8 4.27-2.66 4.91-3.74.24-.4.32-.7.17-.8-.62-.38-1.17 2.54-5.4 3.53l-.3.08c.37-1.44 1.94-4.52 3.46-7.27.23.2.51.33.81.36 1.13.04 2.14-1.6 2.64-3.94.04-.18.08-.34.1-.52l.01.04.05-.26.63.19c.14.29.3.58.46.87.5.98 1.08 1.93 1.72 2.83 1 1.38 2.2 2.5 3.5 3.38-.15.16-.28.34-.4.52-.2.27-.36.57-.48.89-.32.9-.6 1.72-.47 2.43.07.36.24.69.5.94.36.36.93.69 1.78.97 3 .99 3.53-.51 4.18-2.36.1-.3.16-.6.2-.89 4.2 1.28 7.94 1.1 7.94 1.1l.31-.5c1.02-1.8 1.83-3.7 2.4-5.69.27.1.55.2.85.25 1.98.37 3.6.67 4.2-2.33.04-.26.06-.47.08-.7v-.08c.18-2.27-1.3-2.57-3.09-2.9-.4-.07-.82-.08-1.23-.04a14.72 14.72 0 00-2.39-7.69c-.21-.35-.42-.7-.65-1.02l.29.1-.04-.02c1.62.6 3.1.84 4.11.68.6-.09 1.05-.32 1.26-.7.04-.07.04-.15.06-.22.13-.4.03-.9-.26-1.44-.68-1.23-2.33-2.7-4.53-3.86-3.33-1.77-6.63-2.16-7.36-.87-.05.1-.06.21-.08.32-.91-.47-1.88-.82-2.87-1.06l-.28-.08c.46-1.09.83-2.16.98-3.12.49.25.98.43 1.48.58 2.6.78 5.41.21 7.5-1.52.23-.2-.07-.55-.31-.36a7.45 7.45 0 01-6.18 1.36 7.6 7.6 0 01-1.38-.42l.06-.02c1.06-.2 2.06-.6 2.97-1.17l.06-.03c.2-.13.37-.27.56-.41a7.93 7.93 0 002.38-3l.23-.51c.1-.29-.33-.45-.45-.17a7.53 7.53 0 01-6.02 4.53 11.14 11.14 0 003.29-7.33l.02-.77c-.01-.3-.48-.3-.48 0a10.5 10.5 0 01-3.87 7.9 5.03 5.03 0 011.16-5.59.23.23 0 000-.32c-.38-.4-2.41 1.82-2.27 4.62v.32-.02a6.4 6.4 0 01-.37-6.57c.09-.17.17-.34.27-.5a.23.23 0 00-.06-.32c-.47-.3-1.73 1.85-1.58 4.47.09 1.84.9 3.56 2.25 4.8-.02.22-.07.45-.12.68-.19.86-.53 1.78-.94 2.7-.54-.07-1.08-.12-1.61-.12-.61 0-1.2.04-1.8.15a15.44 15.44 0 00-1.57-3.75c-1.37-2.31-3.53-2.59-4.85-2.99a.75.75 0 00-.98.52c-.22.86-.64 2.03-.55 3.35.05.72.24 1.47.7 2.25.7 1.18 1.6 2.3 2.53 3.22-.13.14-.23.3-.35.45a10.14 10.14 0 00-2.2 5.47c-.08.16-.17.3-.24.47-.29-.29-.6-.47-.94-.48-1.03-.04-1.97 1.33-2.5 3.37-.33-.25-.64-.52-.94-.79l-.38-.35c.58-.6.96-1.37 1.08-2.2.1-.68-.02-1.2-.26-1.19-.6.02.27 1.38-1.4 2.73a17.39 17.39 0 01-2.53-5.9c.2.05.4.06.6.09 2.7.37 5.04-1.5 4.57-1.93a.25.25 0 00-.34 0 4.42 4.42 0 01-4.27 1.15 5.55 5.55 0 001.54-1.73c.28-.5.56-1.42.66-2.16.09-.61.05-1.1-.25-1.1-.13 0-.23.11-.23.24a4.77 4.77 0 01-2.16 4.07l-.03.03c.02-.17.02-.34.02-.5.13-4.06-1.75-7.85-2.26-7.58-.2.1-.1.37.1.81.46.96 1.48 2.8 1.4 5.9-.02.47-.05.95-.11 1.42a9.7 9.7 0 01-3.83-6.14c-.05-.3-.5-.23-.47.07.02.2.07.4.1.61.45 2.35 1.7 4.47 3.54 6-.26.05-.52.07-.78.1a6.07 6.07 0 01-5.04-2.16.25.25 0 00-.33-.04c-.17.12-.06.44.27.82.12.14.27.29.44.44a7.32 7.32 0 006.33 1.47c.2 1.9 1.14 4.56 2.13 6.22l-.46-.05a7.73 7.73 0 01-3.6-1.22c-.25-.17-.52.18-.3.37a8.4 8.4 0 003.43 1.62c.16.03.32.08.48.1a5.63 5.63 0 01-4.56 1.8.24.24 0 00-.26.2c-.02.13.07.25.2.26 1.1.19 2.27.03 3.32-.4a6.18 6.18 0 002.4-1.71c.6.64 1.25 1.24 1.92 1.8a15.93 15.93 0 00-.2 2.02c-.02.24 0 .45 0 .68l.01.8c.1 1.53.41 2.87.88 3.8l-.2.34c-1.56 2.72-3.27 5.88-3.68 7.24a8.07 8.07 0 01.4-6.14l.24-.48c.15-.26-.24-.48-.41-.24a8.76 8.76 0 00-1.45 6.4l-.1-.14a6.28 6.28 0 01-1.25-3.37c-.05-.83.07-1.54.16-2.04.08-.47.14-.76-.01-.82-.39-.15-.95 1.23-.86 3.07a7.77 7.77 0 002.72 5.6l.07.1-.1.7c-.3 1.76-.45 3.56-.41 5.36 0 .37.03.73.05 1.09.07 1.43.2 2.84.46 4.17-.06-.08-.1-.18-.15-.27a11.35 11.35 0 01-1.69-5.6c0-.29-.45-.3-.47 0-.03.28 0 .56 0 .85-.03.33-.01.66 0 1 .01.26.08.51.12.77.23 1.58.75 3.13 1.6 4.52-.2-.07-.36-.16-.54-.24a7.07 7.07 0 01-3.94-5.11.24.24 0 00-.26-.2c-.22.02-.3.42-.2 1.03a8.43 8.43 0 006.13 6.22c.07.08.14.14.22.2l.03.02c.36 1.04 1.08 2.81 2 6.27-.12-.11-.22-.24-.32-.36a4.9 4.9 0 01-1.16-2.33c-.05-.28-.47-.24-.48.04 0 1.2.36 2.37 1.05 3.35-.22-.08-.4-.18-.59-.27-2.48-1.19-2.72-3.3-3.18-3.2-.2.05-.22.39-.07.86a7.23 7.23 0 005.33 4.36c.43 1.99.74 4 .91 6.03l-.1-.06c-3.53-1.8-3.51-5.07-3.96-5.05-.22.01-.29.4-.2 1a8.7 8.7 0 003.13 5.04c-.32.03-.62 0-.93-.02a5.84 5.84 0 01-5.4-5.29.24.24 0 00-.24-.21c-.18 0-.28.19-.3.5-.02.16-.01.37.02.6a7.5 7.5 0 002.15 3.94 6.78 6.78 0 005.98 1.8c.05 1.09.06 2.22.05 3.38l-.02.75a144.4 144.4 0 01-.42 8.1 8.99 8.99 0 01-3.82-5.89l-.02-.1c-.05-.3-.48-.26-.48.03l.03.43.01.29c.2 2.3 1.3 4.6 3.09 6.3-.35-.07-.67-.17-.98-.27-3.18-1.08-4.34-3.46-4.88-4.23-.13-.18-.22-.28-.3-.25-.12.03-.15.23-.08.54.01.08.05.18.08.27.32 1 1.37 2.72 3.23 4.08l-.1.17c-.07.12-.15.25-.24.37-.86 1.26-2.12 2.39-3.82 2.23-1.73-.16-3.31-1.2-5.96-1.98a20.55 20.55 0 00-3.23-.67c-4.75-.6-8.57 4.06-10.17 7.31l-.06.11c.33-9.71 4.6-13.13 9.96-14.88 2.52-.82 3.59-1.63 3.84-2.42.13-.43.04-.85-.2-1.27-.11-.17-.19-.32-.25-.47-.22-.52-.08-.88.59-1.56.37-.39.9-.87 1.67-1.57a6.7 6.7 0 002.18-4.83c.04-.87-.06-1.7-.2-2.37a4.47 4.47 0 01-.08-.74c-.03-.59 0-1.31.06-2.15.05-.89.12-1.9.14-3.06.04-2.05-.1-4.1-.44-6.11l-.14-.7c-1.1-5.36-3.43-6.76-6.36-8.37a18.79 18.79 0 00-6.27-2.16 49.12 49.12 0 00-3.09-.4c.27.27.5.57.7.9.39.63.55 1.38.45 2.12-.1.83-.47 1.6-1.04 2.23.13.1.27.19.42.27 1.4.82 3.9.8 7.48 2.29.35.14.67.31.98.5 2.13 1.25 3.15 3.19 3.27 4.38v.09c.02.2 0 .36-.03.5-.06.23-.18.39-.36.43-1.08.26-3.68 1.08-3.5 2.43.01.11.04.21.07.31.26 1.03 1.06 1.13 2.58 1.64 1.25.43 1.83 1.64 1.72 3.86-.05.83-.16 1.66-.33 2.48-.43 2.1-1.9 4.15-3.95 6.33-1.66 1.77-3.68 3.63-5.83 5.69-4.39 4.2-5.21 10.45-5.15 14.7 0 .41.01.81.03 1.18l-.03-.18c-.24-1-.37-2.03-.4-3.06-.15-3.58.72-7.68 2.77-11.04.58-.96 1.17-1.99 1.74-3.07 1-1.87 1.9-3.9 2.58-6a21.88 21.88 0 001.09-6.33l.02-.57a17.02 17.02 0 00-.7-4.47 22.62 22.62 0 00-3.32-6.62l-.56-.8c-1.35-1.83-1.93-3.09-2.07-4.01a2.3 2.3 0 01.5-1.93c.3-.36.52-.78.63-1.24.13-.64-.03-1.33-.72-2.06-1.06-1.1-2.33 1.14-3.95-1.73a3 3 0 01-.36-1.1c-.21-1.65.83-3.6 2.1-6.13.83-1.67 1.76-3.59 2.48-5.83.36-1.2.55-2.42.55-3.66.01-.64-.01-1.28-.07-1.92a23.35 23.35 0 00-.65-3.63 30.4 30.4 0 00-3.08-7.5c-.47-.82-1-1.6-1.6-2.34-2.82-3.39-5.7-7.55-7.85-10.9.03.45.33 1.16.8 2.04 1.42 2.66 4.39 6.9 5.93 10.24.34.77.58 1.57.7 2.4.15.88.2 1.82.18 2.78a27.04 27.04 0 01-2.45 10.1l-.4.91a20.94 20.94 0 00-1.68 8.63c.03 2.29.4 4.24.7 5.73.87 4.59 2.7 8.05 4.42 10.92.98 1.66 1.93 3.12 2.62 4.49a16.16 16.16 0 011.56 7.37c-.05 1.69-.4 3.13-1.07 3.9l-.38.5c-.8 1.03-1.3 2.14-1.14 3.25.1.77.53 1.54 1.38 2.29.88.76 1.13 1.3.96 2.1-.28 1.3-1.7 3.25-3.47 7.92-.17.46-.44.98-.67 1.5-.15.34-.29.67-.35.98l.53 7.63c.05.2.17.41.3.61l.04.08c.15.24.3.48.39.72a41.94 41.94 0 002.6 5.56l.09.15h1.87v-.3c-.01-.89-.06-1.77-.13-2.66v-.57c-.03-.95.32-1.89.95-2.6 1.18-1.3 3.1-1.7 3.99-1.3l.13.07c1.05.47 2.02.7 2.48.5.12-.05.22-.13.26-.26.12-.42-.65-.87-1.33-1.31a6.83 6.83 0 01-.52-.36c-.08-.07-.16-.13-.22-.2-.48-.5.98-1.3 2.79-.99.35.06.7.15 1.08.3 2.24.96 3.18 1.18 3.85.61.68-.56 3.49.84 6.46.02 1.98-.54 2.3-2.43 2.6-4.23 1.08.74 2.3 1.25 3.58 1.52l-.08.8a357.11 357.11 0 01-1.22 10.8h2.4c.43-3.54.82-7.9 1.11-11.46 1.6-.14 3.15-.61 4.55-1.4a12.5 12.5 0 003.63-3.3c.24-.38.34-.67.2-.78-.4-.27-.7.67-2.06 1.74z"/>
  <path fill="#FFF" d="M-407.65 239.43c.5-.34 2.6-1.41 3.14-1.77l.07-.05c.46-.31.23-.8-.25-.83-.48-.04-.6-.01-.6-.01s-2.1-.05-2.89-.01c-.79.03-1.12 0-1.43-.8-.3-.89-.5-1.8-.6-2.74 0-.31-.05-.45-.17-.52a.63.63 0 00-.34-.1c-.17.02-.33.14-.55.48a9.7 9.7 0 00-1.17 3.03s-.1.7-.76.7h-3.9s-.58-.1-.72.33c-.09.26.1.42.3.53l.32.15 2.9 1.8s.43.18.19.8l-.05.13c-.3.78-1.15 3.13-1.15 3.13s-.2.4.08.6l.01.03c.3.2.51.07.7-.04.2-.1 2.36-1.57 2.98-2.22 0 0 .36-.4.93 0 .56.4 1.96 1.54 2.92 2.08 0 0 .44.43.86.2l.05-.02c.09-.05.28-.21.1-.6a128.07 128.07 0 01-1.45-3.27c-.03-.18-.05-.66.48-1.01zm-26.72 11.94c-.48-.04-.6-.01-.6-.01s-2.1-.05-2.89-.01c-.79.03-1.12 0-1.43-.8-.3-.89-.5-1.8-.6-2.73 0-.43-.08-.52-.32-.6-.25-.07-.44 0-.74.45-.3.46-.82 1.5-1.17 3.03 0 0-.09.7-.76.7h-3.9s-.14-.03-.3 0c-.17.03-.35.12-.42.33-.04.14 0 .24.05.32.07.09.15.16.25.2.13.08.26.13.31.16.14.07 2.9 1.8 2.9 1.8s.44.18.2.8l-.05.13-.54 1.43-.61 1.7-.25.79c-.03.06-.04.12-.04.13l.67.39.02-.02a55.02 55.02 0 003.37-2.92s.36-.4.93 0l.98.74c.62.49 1.26.94 1.94 1.34 0 0 .44.43.86.2l.05-.02c.09-.05.28-.21.1-.6l-.23-.48a111.25 111.25 0 01-1.22-2.79c-.04-.18-.05-.66.48-1.01.5-.34 2.6-1.41 3.15-1.77l.06-.05c.46-.31.23-.8-.25-.83zm-11.9-20.46c.1-.26.16-.52.2-.77.22-1.69-.92-3.2-1.94-4.55-.72-.95-1.4-1.85-1.56-2.68l-.01-.05a1.92 1.92 0 01-.03-.33c0-.96.67-1.86 1.43-2.88.74-.99 1.58-2.1 1.93-3.49.07-.24.1-.48.13-.72a6.98 6.98 0 00-.91-3.75c-.15-.27-.3-.54-.47-.81h3.74c.76.99 1.89 2.87 1.7 4.49-.01.12-.02.25-.05.38l-.09.25a9.6 9.6 0 01-1.56 2.66c-.95 1.26-1.92 2.58-1.74 4.24 0 .08 0 .16.02.24.03.17.1.34.15.5a10.24 10.24 0 001.73 2.95c.94 1.24 1.82 2.42 1.57 3.51l-.05.23c-.26.66-.56 1.31-.88 1.95a10.6 10.6 0 00-1.36 5.39l.02.1c.06.43.42.74.85.74.48 0 .87-.38.87-.84 0-2.2.5-3.24 1.2-4.67.3-.61.63-1.28.94-2.1.1-.25.16-.5.2-.76.22-1.69-.92-3.2-1.95-4.55-.34-.45-.67-.9-.98-1.38-.26-.4-.46-.83-.57-1.3l-.01-.05c-.2-1.08.55-2.07 1.4-3.2.52-.68.99-1.39 1.39-2.13.22-.43.42-.88.54-1.37.07-.24.1-.48.13-.72a6.98 6.98 0 00-.92-3.75l-.45-.81h5.19c.54 0 .96-.39 1.08-.88l.07-.71.01-.32.02-.49c0-7.16-6-12.97-13.41-12.97-2.86 0-5.65.9-7.98 2.57a12.8 12.8 0 00-5.43 10.4l.02.5.01.3.05.51c.01.6.51 1.1 1.12 1.08l.44.01h5.05c.77 1 1.89 2.87 1.7 4.49-.01.13-.02.26-.05.38-.28 1.07-.98 2-1.65 2.9-.49.65-.97 1.3-1.32 2.01-.35.7-.5 1.47-.42 2.25 0 .08 0 .15.02.23.21 1.24 1.06 2.37 1.88 3.45.94 1.24 1.82 2.42 1.57 3.51l-.05.23c-.26.66-.56 1.31-.88 1.95-.73 1.5-1.36 2.81-1.36 5.39l.02.1c.06.43.42.75.85.74.48 0 .88-.37.88-.84a9 9 0 011.2-4.67c.3-.61.62-1.28.93-2.1.1-.25.16-.5.2-.76.22-1.69-.92-3.2-1.95-4.55-.71-.95-1.39-1.84-1.55-2.67l-.01-.05c-.1-.6.08-1.17.4-1.76.3-.5.64-1 1-1.46.74-.99 1.58-2.1 1.93-3.49.07-.24.1-.48.13-.72a6.98 6.98 0 00-.91-3.74c-.15-.28-.3-.55-.47-.82h3.74c.77.99 1.88 2.87 1.7 4.49-.02.12-.02.25-.05.38-.28 1.07-.98 2-1.66 2.9-.78 1.06-1.58 2.14-1.73 3.43-.03.27-.03.55 0 .82.01.08 0 .16.02.25.21 1.23 1.06 2.36 1.88 3.44.94 1.25 1.82 2.42 1.57 3.51l-.06.23c-.28.76-.59 1.37-.87 1.96-.73 1.5-1.37 2.8-1.37 5.38 0 .04.02.07.03.1.05.43.42.74.85.74.48 0 .87-.37.87-.84 0-2.2.5-3.24 1.2-4.67.35-.68.66-1.38.94-2.1zm128.43-5.54a38.23 38.23 0 00-11.95-1.3c-7.85.5-11.37 3.7-11.99 4.4v.1c0 .1 0 .1.1.2l.1.1.11.1c.63.64 1.73 1.37 3.18 2a20.43 20.43 0 008.2 1.7c2.44 0 5.9-.44 8.62-1.03h.02l3.17-5.5.44-.78zm-17.82 2.9a1.15 1.15 0 01-2.1 0 1.05 1.05 0 01-.1-.4c.02-.62.53-1.11 1.15-1.1.62 0 1.13.5 1.13 1.1a1 1 0 01-.08.4zm7.04 7.68c-7.86.5-11.38 3.7-12 4.4v.1c0 .1 0 .1.1.2l.1.1c.04.03.09.06.12.1 1.5 1.54 6.12 3.56 11.38 3.67h.03l4.49-7.74h-.04l.44-.77c-1.4-.08-3.3-.14-4.62-.06zm-5.88 4.2a1.15 1.15 0 01-2.1 0 1.05 1.05 0 01-.09-.4c.02-.62.52-1.11 1.14-1.1.62 0 1.13.5 1.13 1.1 0 .14-.03.28-.08.4zm-80.04-27.34c-.22.37-.32.8-.27 1.24l-3.6.59a.48.48 0 00-.4.54c.02.15.13.25.26.32.07.04.14.07.22.07h.08l3.72-.6a2.34 2.34 0 00.69.7c.08.05.17.05.25.09l-.34.65-1 1.92c-.1.2-.03.43.13.57l.1.07a.5.5 0 00.66-.21l1.46-2.83c.45-.02.89-.18 1.24-.47l3.2 1.53a.5.5 0 00.45-.03c.08-.04.15-.1.2-.2a.47.47 0 00-.22-.62l-2.89-1.38-.16-.08c.06-.15.08-.3.11-.45l.03-.09c.04-.26.03-.54-.03-.8l2.93-1.47.02-.01c.22-.13.31-.4.2-.63a.49.49 0 00-.58-.22c-.03 0-.06 0-.09.02l-2.98 1.5c-.13-.15-.25-.3-.42-.4a2.18 2.18 0 00-1.42-.26l-.8-2.33a.49.49 0 00-.62-.3.47.47 0 00-.31.6l.12.33.68 2.02c-.08.05-.13.14-.2.2-.15.13-.31.25-.42.42zm50.78 3.74c-.1.2-.04.43.13.57l.09.07a.5.5 0 00.66-.21l1.46-2.83c.45-.02.89-.18 1.24-.47l.77.37 2.42 1.16a.5.5 0 00.46-.03c.08-.04.16-.1.2-.2a.47.47 0 00-.22-.62l-2.47-1.18-.42-.2-.16-.08c.06-.15.08-.3.11-.45l.03-.09c.04-.26.03-.54-.03-.8l1.54-.77 1.39-.7.02-.01c.22-.13.31-.4.2-.63a.5.5 0 00-.67-.2l-.32.16-2.66 1.33c-.13-.14-.25-.28-.43-.39a2.17 2.17 0 00-1.42-.26l-.8-2.33a.49.49 0 00-.61-.3.47.47 0 00-.32.58v.02l.12.34.69 2.01c-.08.05-.13.14-.2.2-.15.13-.3.25-.42.41-.22.38-.32.81-.27 1.25l-3.6.58a.48.48 0 00-.4.54v.01c.02.15.13.25.26.32.07.03.14.07.22.07h.08l3.72-.61c.17.28.4.53.69.7.08.05.17.06.25.1l-.34.65-.99 1.92z"/>
  <path fill="#FFF" d="M-435.46 219.1l.11.34.69 2c-.08.06-.14.15-.2.21-.15.13-.31.24-.42.41-.23.37-.32.81-.28 1.25l-.65.1-2.94.48a.48.48 0 00-.4.54c.02.16.13.26.26.32.07.04.14.08.22.08h.08l3.46-.57.26-.04c.17.28.4.52.69.7.08.05.17.05.25.1l-.23.44-.1.2-.36.68-.64 1.25c-.1.2-.04.43.12.56l.1.07a.5.5 0 00.65-.2l.74-1.43.16-.3.36-.7.2-.4c.46-.02.9-.19 1.25-.47l.82.39 2.37 1.13a.5.5 0 00.46-.02c.08-.04.15-.1.2-.2a.47.47 0 00-.23-.63l-1.91-.92-.97-.46-.16-.08c.06-.14.08-.3.1-.44l.03-.1c.05-.26.04-.53-.03-.8l2.94-1.47h.01c.23-.13.32-.4.2-.63a.5.5 0 00-.66-.2l-2.98 1.49c-.13-.14-.26-.29-.43-.39-.36-.2-.77-.3-1.18-.26-.08 0-.16-.02-.24 0l-.8-2.33a.5.5 0 00-.61-.3.47.47 0 00-.32.58v.01zm62.77 53.28a1.7 1.7 0 00-1.74 1.68c0 .15.05.28.09.41a1.7 1.7 0 003.3 0c.04-.13.09-.26.09-.4a1.7 1.7 0 00-1.74-1.68zm41.8-57.12a2.2 2.2 0 002.23 2.15 2.2 2.2 0 002.22-2.15c0-1.18-1-2.14-2.22-2.14-1.23 0-2.22.96-2.22 2.14zm-77.34 75.44c0 .14.02.27.04.4a2.2 2.2 0 002.19 1.75c1.2 0 2.19-.95 2.22-2.15 0-1.19-1-2.15-2.22-2.15-1.23 0-2.23.96-2.23 2.15zm-23.23-28.14a1.7 1.7 0 00-1.74 1.68c0 .15.05.28.09.41a1.7 1.7 0 003.3 0c.04-.13.09-.26.09-.4 0-.93-.78-1.68-1.74-1.68zm94.16-41.68c0 .14.05.28.09.4a1.7 1.7 0 003.3 0c.03-.13.08-.25.08-.4 0-.93-.77-1.68-1.73-1.68s-1.74.75-1.74 1.68z"/>
  <path fill="#737373" d="M-355.87 222.9c0-.1-.04-.21-.07-.32a1.36 1.36 0 01-2.65 0c-.03.11-.07.21-.07.33.02.75.64 1.35 1.4 1.34.76 0 1.39-.6 1.39-1.34z"/>
  <path fill="#FFF" d="M-357.26 220.91a1.37 1.37 0 00-1.4 1.35c0 .11.05.22.07.32.16.6.7 1.03 1.33 1.02.62 0 1.16-.42 1.32-1.02.03-.1.07-.2.07-.32a1.37 1.37 0 00-1.4-1.35z"/>
  <path fill="#737373" d="M-356.93 249.63c0-.14-.05-.27-.08-.4a1.7 1.7 0 01-1.66 1.27 1.7 1.7 0 01-1.65-1.27c-.03.13-.08.26-.08.4 0 .93.77 1.69 1.73 1.69s1.74-.76 1.74-1.68z"/>
  <path fill="#FFF" d="M-358.66 247.14a1.7 1.7 0 00-1.74 1.68c0 .14.05.28.08.4a1.7 1.7 0 003.3 0c.04-.12.1-.25.1-.4 0-.93-.79-1.68-1.75-1.68z"/>
  <path fill="#006BB6" d="M-344.42 336.61h4.92v-26.6l-4.92 1.41v25.2z"/>
  <g>
    <path fill="#26BCE3" d="M-342.46 298.8a11.48 11.48 0 008.79 3.9 11.4 11.4 0 008.79-3.88 12.9 12.9 0 002.46-4.32c.59-1.74.89-3.57.87-5.4 0-1.93-.3-3.73-.87-5.38a13.04 13.04 0 00-2.47-4.31 11.35 11.35 0 00-8.78-3.9 11.5 11.5 0 00-8.8 3.88 12.9 12.9 0 00-2.47 4.3c-.6 1.74-.89 3.57-.87 5.4 0 1.95.3 3.75.87 5.4a12.84 12.84 0 002.48 4.32zm2.15-13.45a8.3 8.3 0 011.41-2.83 6.13 6.13 0 012.24-1.77 7 7 0 012.99-.62c1.1 0 2.1.2 2.98.62.87.4 1.61 1 2.23 1.78.65.84 1.13 1.8 1.41 2.82.33 1.1.49 2.35.49 3.74 0 1.4-.16 2.66-.49 3.77a8.16 8.16 0 01-1.41 2.82 6.18 6.18 0 01-2.23 1.76c-.94.42-1.96.63-2.98.62a7 7 0 01-2.99-.62 6.15 6.15 0 01-2.24-1.76 8.14 8.14 0 01-1.41-2.82c-.34-1.22-.5-2.5-.49-3.77 0-1.39.16-2.64.49-3.74zm23.88 13.5a10.43 10.43 0 008.38 3.84c1.96 0 3.65-.35 5.07-1.06a9.48 9.48 0 003.56-3.11l-1.94-2.33a.86.86 0 00-.68-.33c-.16 0-.3.03-.43.1-.13.08-.25.17-.37.28-.32.33-.67.62-1.04.88-.7.48-1.5.78-2.35.88a11 11 0 01-1.5.1 5.97 5.97 0 01-4.8-2.35 8.7 8.7 0 01-1.45-2.84 12.7 12.7 0 01-.53-3.82c0-1.41.17-2.68.5-3.8a8.41 8.41 0 011.37-2.8 6.06 6.06 0 012.13-1.75c.83-.4 1.74-.6 2.72-.6.9 0 1.63.1 2.22.3.57.21 1.06.44 1.45.7.33.22.66.45.98.7.26.2.53.3.79.3s.47-.05.62-.18c.15-.11.27-.26.37-.42l1.65-2.53a9.8 9.8 0 00-5.59-3.24 11.7 11.7 0 00-5.76.2 10.64 10.64 0 00-5.18 3.36c-.7.82-1.3 1.73-1.77 2.7-.5 1.01-.86 2.1-1.12 3.3a17.9 17.9 0 00-.38 3.76c0 1.97.26 3.78.8 5.45a12.95 12.95 0 002.28 4.3zm33.2-.76h-8.74v-6.98h6.5v-4.16h-6.5v-6.84h8.75l1.4-4.3h-15.07v26.59h15.07l-1.4-4.3zm7.8 3.94c.28-.25.47-.53.57-.84l1.6-5.07h9.43l1.6 5.07c.12.34.32.64.6.87.29.24.65.36 1.03.34h3.8l-9.23-26.6h-5.01l-9.25 26.6h3.83c.42 0 .76-.12 1.03-.38zm5.92-17.83a29 29 0 00.97-3.4c.25 1.13.57 2.26.96 3.37l2.56 8.13h-7.03l2.55-8.1zm19.45 2.82c0-.8-.03-1.61-.1-2.41l11.8 16.86c.19.29.45.54.76.72.26.14.58.2.96.2h2.53v-26.58l-4.32 1.4v13.81c0 .4 0 .8.03 1.24s.05.88.1 1.34l-11.88-16.93a4.08 4.08 0 00-.36-.44 1.5 1.5 0 00-.34-.27 1.07 1.07 0 00-.4-.13 4.06 4.06 0 00-.53-.02h-2.58v26.59l4.33-1.4v-13.98z"/>
    <path fill="#006BB6" d="M-319.43 327.81l-11.88-16.93a3.5 3.5 0 00-.36-.44c-.1-.11-.22-.2-.34-.27s-.25-.1-.4-.12a3.99 3.99 0 00-.53-.03h-2.57v26.6l4.32-1.41v-13.98c0-.8-.03-1.61-.1-2.42l11.8 16.87c.2.3.45.54.76.72a2 2 0 00.96.21h2.53v-26.6l-4.32 1.4v13.82a24.3 24.3 0 00.13 2.58zm24.95 8.59a2 2 0 00.97.21h2.52v-26.6l-4.32 1.4v13.82c0 .86.05 1.72.13 2.58l-11.87-16.93a3.8 3.8 0 00-.36-.44c-.1-.11-.23-.2-.34-.27a1.07 1.07 0 00-.4-.13 3.97 3.97 0 00-.53-.02h-2.58v26.59l4.32-1.4v-13.98c0-.8-.03-1.61-.1-2.42l11.8 16.86c.2.3.46.54.76.73zm27.66-3.38a12.93 12.93 0 002.46-4.3c.6-1.75.9-3.58.87-5.41 0-1.93-.29-3.73-.87-5.38a13.06 13.06 0 00-2.46-4.31 11.35 11.35 0 00-8.79-3.9 11.52 11.52 0 00-8.8 3.89 12.88 12.88 0 00-2.46 4.3c-.6 1.73-.89 3.56-.87 5.4 0 1.94.29 3.74.87 5.4a12.83 12.83 0 002.47 4.3 11.5 11.5 0 008.8 3.9 11.37 11.37 0 008.79-3.88l-.01-.01zm-5.8-1.37c-.94.42-1.96.63-2.99.62-1.1 0-2.1-.2-2.98-.62a6.14 6.14 0 01-2.24-1.76 8.14 8.14 0 01-1.41-2.82c-.35-1.22-.51-2.5-.5-3.76 0-1.4.17-2.65.5-3.75a8.26 8.26 0 011.4-2.83 6.1 6.1 0 012.25-1.77 7.01 7.01 0 012.98-.61c1.11 0 2.1.2 2.98.6.88.42 1.62 1.01 2.23 1.79.65.84 1.13 1.8 1.42 2.82.32 1.1.49 2.35.49 3.75s-.17 2.65-.5 3.76a8.17 8.17 0 01-1.4 2.82 6.17 6.17 0 01-2.24 1.76zm26.16-20.42l-5.08 15.32c-.2.57-.39 1.2-.55 1.88a38.6 38.6 0 00-.47 2.13c-.3-1.35-.66-2.7-1.1-4.01l-5.13-15.32a2.03 2.03 0 00-.6-.87c-.29-.24-.65-.36-1.03-.34h-3.95l9.53 26.6h4.44l9.52-26.6h-3.96c-.42 0-.76.13-1.04.38-.26.22-.46.5-.58.83zm11.47-1.21l-9.25 26.6h3.83c.42 0 .76-.13 1.03-.38s.46-.53.57-.84l1.6-5.07h9.43l1.6 5.07c.12.34.32.64.6.87.28.24.65.36 1.03.34h3.8l-9.23-26.59H-235zm-1.01 16.5l2.54-8.1a29 29 0 00.97-3.42c.25 1.14.57 2.27.96 3.38l2.56 8.13H-236zm20.1 10.1h4.92v-22.17h5.51l1.4-4.43h-18.74v4.43h6.92v22.16zm14.91 0h4.93v-26.6l-4.93 1.4v25.2zm32.89-13.31c0-1.93-.3-3.73-.87-5.38s-1.4-3.1-2.47-4.31a11.34 11.34 0 00-8.78-3.9 11.52 11.52 0 00-8.79 3.89 12.86 12.86 0 00-2.47 4.3c-.6 1.74-.9 3.56-.88 5.4 0 1.94.3 3.74.88 5.4a12.85 12.85 0 002.47 4.3 11.48 11.48 0 008.79 3.9 11.4 11.4 0 008.78-3.89 12.93 12.93 0 002.47-4.3c.59-1.75.88-3.58.87-5.41zm-5.5 3.76a8.18 8.18 0 01-1.4 2.82 6.15 6.15 0 01-2.24 1.76c-.94.42-1.96.63-2.98.62-1.1 0-2.1-.2-2.98-.62a6.14 6.14 0 01-2.25-1.76 8.14 8.14 0 01-1.4-2.82c-.35-1.22-.52-2.5-.5-3.76 0-1.4.16-2.65.5-3.75a8.26 8.26 0 011.4-2.83 6.1 6.1 0 012.25-1.77 7.01 7.01 0 012.98-.61c1.11 0 2.1.2 2.98.6.87.42 1.62 1.01 2.23 1.79.65.84 1.13 1.8 1.41 2.82.33 1.1.5 2.35.5 3.75s-.17 2.65-.5 3.76zm24.78-15.65v13.81c0 .86.05 1.73.13 2.58l-11.88-16.93a3.8 3.8 0 00-.36-.44c-.1-.11-.22-.2-.34-.27a1.07 1.07 0 00-.4-.12 3.97 3.97 0 00-.53-.03h-2.58v26.6l4.33-1.41v-13.98c0-.8-.04-1.61-.1-2.42l11.8 16.87c.2.3.45.54.76.72a2 2 0 00.96.21h2.53v-26.6l-4.32 1.4zm-179.49 52.86c-.15 0-.29.03-.42.1a2 2 0 00-.37.28c-.32.33-.67.62-1.04.88-.7.48-1.5.78-2.35.88-.45.06-.95.1-1.5.1a5.97 5.97 0 01-4.8-2.35 8.65 8.65 0 01-1.45-2.83 12.67 12.67 0 01-.53-3.82c0-1.42.17-2.69.5-3.8a8.4 8.4 0 011.37-2.81 6.02 6.02 0 014.85-2.36c.9 0 1.63.1 2.21.31.51.18 1 .41 1.46.7.33.22.66.45.97.7.22.19.5.3.8.3.26 0 .46-.05.62-.17.14-.12.27-.26.37-.43l1.65-2.53a9.7 9.7 0 00-3.41-2.53 10.96 10.96 0 00-4.65-.97c-1.16 0-2.26.15-3.29.45a10.63 10.63 0 00-5.18 3.37c-.7.82-1.3 1.73-1.77 2.7-.5 1.01-.87 2.1-1.12 3.3a17.9 17.9 0 00-.38 3.77c0 1.96.26 3.78.8 5.44a12.97 12.97 0 002.28 4.3 10.42 10.42 0 008.38 3.85c1.96 0 3.65-.35 5.07-1.06a9.47 9.47 0 003.56-3.12l-1.94-2.32a.87.87 0 00-.69-.33zm21.1-8.76h-10.43v-11.3h-4.92v26.6l4.92-1.4v-10.05h10.43v11.45h4.92v-26.6l-4.92 1.41v9.89zm16.75-11.3l-9.25 26.6h3.83c.42 0 .76-.13 1.03-.38s.46-.52.57-.83l1.6-5.07h9.42l1.6 5.07c.12.34.33.64.6.87.3.24.66.36 1.03.34h3.8l-9.23-26.6h-5zm-1.01 16.5l2.54-8.1c.4-1.11.71-2.25.96-3.4.26 1.13.58 2.26.97 3.36l2.55 8.14h-7.02zm22.71-16.5l-4.89 1.41v25.19h14.05v-4.47h-9.16v-22.12zm17.68 22.13v-22.12l-4.89 1.4v25.19h14.05l-1.4-4.47h-7.76zm26.46-17.82l1.4-4.3h-15.07v26.59h15.07l-1.4-4.3h-8.74v-6.99h6.5v-4.16h-6.5v-6.84h8.74zm21.2 10.9c.01.87.05 1.73.13 2.59l-11.87-16.93a3.73 3.73 0 00-.36-.44c-.1-.11-.22-.2-.34-.27a1.07 1.07 0 00-.4-.13 3.97 3.97 0 00-.53-.02h-2.58v26.59l4.32-1.4v-13.98c0-.8-.03-1.61-.1-2.42l11.8 16.86c.2.3.46.55.77.73a2 2 0 00.96.2h2.53v-26.58l-4.33 1.4v13.8zm14.5-8.42a6.45 6.45 0 015.26-2.46c.65 0 1.23.05 1.73.13.9.15 1.78.46 2.58.93.38.2.76.45 1.15.72.41.28.8.38 1.14.3.35-.1.64-.33.85-.72l1.42-2.46a10.7 10.7 0 00-3.6-2.52c-.76-.32-1.54-.56-2.35-.73-.9-.18-1.82-.27-2.74-.26-1.9 0-3.6.33-5.13 1-1.49.65-2.82 1.6-3.9 2.8a12.52 12.52 0 00-2.5 4.3c-.6 1.76-.89 3.61-.86 5.48-.02 1.85.28 3.7.9 5.44.58 1.6 1.46 3.06 2.6 4.3a11.76 11.76 0 004.05 2.84c1.58.68 3.34 1.01 5.28 1.01 1.53 0 2.97-.22 4.33-.68 1.41-.48 2.72-1.22 3.86-2.17v-10.98h-6.72l-1.4 3.06c0 .3.09.53.27.72.18.2.42.29.74.29h2.68v4.47c-.58.3-1.19.54-1.81.72-.68.19-1.39.28-2.1.27-1.15 0-2.2-.21-3.13-.63a6.65 6.65 0 01-2.43-1.81 8.41 8.41 0 01-1.56-2.92c-.39-1.28-.57-2.6-.55-3.94 0-1.35.16-2.58.5-3.68.3-1.02.78-1.98 1.44-2.82zm31.86-2.48l1.4-4.3h-15.07v26.59h15.07l-1.4-4.3h-8.74v-6.99h6.49v-4.16h-6.5v-6.84h8.75z"/>
  </g>
  <g>
    <path fill="#006BB5" d="M-644.44 252.1H-587v57.45h-57.44v-57.44z"/>
    <path fill="#FFF" d="M-629.87 261.52v22.6c0 11.95 5.91 16.39 13.78 16.39 8.3 0 14.5-4.8 14.5-16.57v-22.42h-5v22.76c0 8.44-3.7 12.19-9.34 12.19-5.12 0-8.93-3.65-8.93-12.19v-22.76h-5.01z"/>
    <path fill="#006BB5" d="M-583.46 252.1h57.44v57.45h-57.44v-57.44z"/>
    <path fill="#FFF" d="M-564.46 300.02v-16.39c0-6.39-.06-10.99-.35-15.82l.18-.06c1.89 4.15 4.45 8.53 7.12 12.8l12.17 19.47h5.01v-38.36h-4.66v16.1c0 5.93.11 10.59.56 15.71l-.17.06a102.68 102.68 0 00-6.82-12.46l-12.24-19.42h-5.46v38.37h4.66z"/>
    <path fill="#006BB5" d="M-583.46 313.08h57.44v57.44h-57.44v-57.44z"/>
    <path fill="#FFF" d="M-545.03 325.42c-2.28-2.05-5.86-3.2-10.76-3.2-3.98 0-7.11.35-9.5.8v37.85h4.95V345.5c1.15.29 2.5.35 3.99.35 4.83 0 9.1-1.45 11.7-4.22 2-2 3.03-4.73 3.03-8.2 0-3.42-1.31-6.2-3.41-8.01"/>
    <path fill="#006BB5" d="M-556.24 342.09c-1.6 0-3.02-.12-4.1-.4v-14.9c.85-.18 2.5-.4 4.66-.4 5.47 0 9.06 2.43 9.06 7.57 0 5.17-3.6 8.13-9.62 8.13m-88.26-28.96h57.45v57.45h-57.45v-57.45z"/>
    <path fill="#FFF" d="M-604.1 326.9c-3.37-3.13-8.43-4.73-15.54-4.73-3.94 0-7.5.34-10.6.8v37.73c2.57.34 5.47.45 9.06.45 7.45 0 13.37-1.92 17.02-5.5 3.52-3.53 5.5-8.67 5.5-14.92 0-6.2-1.98-10.7-5.45-13.83"/>
    <path fill="#006BB5" d="M-620.2 357.18c-1.95 0-3.77 0-5.01-.24v-30.32c1.3-.28 3.24-.51 5.8-.51 10.46 0 15.6 5.64 15.53 14.8 0 10.34-5.75 16.32-16.33 16.27M-644.44 130h118.48v118.5h-118.48V130z"/>
    <path fill="#FFF" d="M-542.8 191.7c-1.66 2.35-3.67 4.55-5.2 6.95.18-1.9.4-4.24-.34-6.04-1.28-3.87-2.4-7.8-2.76-12.04l.04-1.63c.96 4.34 5.23 7.33 4.96 12.2.1 1.17-.28 2.17-.49 3.21l.07.08.2-.22c.63-2.38.94-4.9 1.93-7.13 1.4-3.2 3.13-6.43 2.43-10.3 2.12 4.56 1.49 10.66-.84 14.92"/>
    <path fill="#FFF" d="M-545.43 167.12c2.8 3.78 3.42 9.82 1.38 14.16a25.07 25.07 0 00-1.6 5.84c-.14-.35-.17-.82-.3-1.22-1.1-4.25-5.13-7.27-6.79-11.29a21 21 0 01-1.2-4.09c1.76 3.27 6.12 4.96 7.3 8.56.49.92.46 2.05.76 3.04.06 0 .13-.05.13-.12-.52-3.7-.37-7.6.14-11.25-.03-2-.22-3.92-1.33-5.45.71.41 1.03 1.2 1.51 1.81"/>
    <path fill="#FFF" d="M-547.4 166.39c.74 3.32-.32 6.55.35 9.9l-.03.03c-1.8-3.55-5.64-5.23-8.27-8.07-1.54-1.69-2.2-3.74-2.57-5.92 1.5 3.65 5.58 4.45 7.92 7.51.78.71 1.04 1.7 1.55 2.5l.07-.08c-1.34-2.87-1.8-6.11-2.72-9.17a7.2 7.2 0 00-2.66-3.48c3.07.64 5.73 3.84 6.37 6.78"/>
    <path fill="#FFF" d="M-555.6 158.77c2.31 2.07 3.35 4.76 4.04 7.54l.37.88a33.2 33.2 0 01-8.55-9.1l-2.63-2.64c2.3.97 4.8 1.56 6.76 3.33m-43.92-2.57a33.39 33.39 0 0114.37-3.41c11.9.02 23.27 7 28.45 18.02a31.36 31.36 0 012.09 22.2c-2.17 8.45-9.27 17-17.55 20.47-9.31 4.56-22.55 3.43-30.85-2.53-11.55-7.9-16.27-21.54-12.78-34.99 2.12-7.99 8.48-16.06 16.27-19.76m-9.13-.32c-2.32 2.03-3.93 4.6-5.65 7.01-1.55 1.91-3.52 3.17-5.28 4.82.95-1.96.99-4.3 2.33-6.1 1.91-3.34 5.45-4.5 8.6-5.73"/>
    <path fill="#FFF" d="M-621.35 162.98a7.84 7.84 0 014.17-2.8c-3.12 2.15-2.93 6-3.92 9.2-.32 1.2-.87 2.28-1.14 3.5l.09.06a10.93 10.93 0 012.56-3.79c2.23-2.05 5.52-3.33 6.6-6.36-.04 4.22-3.56 7.53-6.92 9.9a14.1 14.1 0 00-3.5 4.16c-.07-1.05.16-2.12.09-3.26-.37-3.68-.64-7.88 1.97-10.61"/>
    <path fill="#FFF" d="M-627.68 175.56c-.1-3.73 1.45-6.77 3.64-9.55.05-.03.1-.1.18-.08-2.4 3.65-.42 8.24-.53 12.4l-.31 4.24c.04.03.04.16.16.11.14-.47.17-.98.26-1.47.57-3.43 3.54-5.86 6.15-8.23a6.63 6.63 0 001.32-1.96 17.7 17.7 0 01-1.45 5c-2.02 3.95-5.76 7.18-6.44 11.7-.33-4.32-3.29-7.56-2.98-12.16"/>
    <path fill="#FFF" d="M-629.5 180.87c.27-1.17.48-2.37.98-3.44-.97 4.93 2.35 8.47 3.44 12.75.45 1.6.57 3.32 1.22 4.82.06.04.11-.03.15-.08-1.62-4.54.72-8.76 3.06-12.32.57-.96.9-2.03 1.19-3.13.25 2.05-.27 4.42-.57 6.55-.57 2.71-1.42 5.28-2.16 7.92-.5 1.64-.36 3.5-.11 5.23l-.24-.19c-1.73-3.17-5.13-5.65-6.14-9.12-.84-2.77-1.39-5.98-.82-9"/>
    <path fill="#FFF" d="M-629.66 190.5c.38 5.23 6 7.99 8.61 12.31.62.89 1.15 1.87 1.97 2.6-.13-.55-.64-1.02-.83-1.59a11.25 11.25 0 01-1.03-6.17c.25-2.67 1.37-5.15.95-7.96 2.28 4.94 1.6 11.1 2.87 16.46.33 1.16 1.01 2.2 1.45 3.33-4.7-3.21-11.11-6.26-13.2-12.13-.88-2.03-.98-4.53-.8-6.85"/>
    <path fill="#FFF" d="M-626.85 202.5c2.62 5.93 9.19 6.42 13.6 10.04.8.7 1.66 1.33 2.57 1.75l.05-.05c-1.02-.91-2.18-1.95-2.9-3.14-2.56-3.58-1.66-8.6-3.59-12.45a29.11 29.11 0 014.4 6.65c1.59 3.9 2.19 8.28 5.84 11.22-3.96-1.3-8.58-.93-12.06-3.37-3.8-2.33-7.2-6.3-7.9-10.65"/>
    <path fill="#FFF" d="M-620.1 213.57c4.19 4.78 11.07 3.19 16.67 4.43.78.12 1.51.43 2.36.3-.67-.42-1.6-.37-2.33-.76-4.39-1.55-5.03-6.3-7.42-9.5 3.05 2.02 5.6 4.75 8.41 7.39 2.03 1.76 4.45 2.59 7.01 3.11-.61.22-1.42.16-2.08.33-4.6 1.14-9.71 2.98-14.59 1.32-3.17-.99-6.44-3.5-8.04-6.62"/>
    <path fill="#FFF" d="M-563.04 224.71c-4.74 1.77-9.69-.08-13.38-2.88-1.5-.96-2.82-2.33-4.77-2.2-.69-.02-1.37.01-1.97.19a36.5 36.5 0 0110 6.93c-.56.6-1.17 1.14-1.82 1.64-2.94-3.17-6.2-6.22-9.85-8-.71.1-1.4.52-2.04.86a30.46 30.46 0 00-8.11 7.25l-1.9-1.56a34.96 34.96 0 0110.04-7.16c-3.6-1.13-5.95 1.88-8.68 3.42-3.19 2.22-7.77 3.27-11.62 1.73a12.64 12.64 0 01-5.58-3.82c3.04 2.09 7.55 2.3 11 .95 4.62-2 9.41-4.54 14.99-3.33.87.01 1.72.88 2.55.14a17.77 17.77 0 0112.38 1.57l3.69 1.46c3.4 1.26 7.83.92 10.75-1.17a12.73 12.73 0 01-5.68 3.98"/>
    <path fill="#FFF" d="M-557.96 219.82c-5.33 2-10.67-.46-15.77-1.28l-.98-.12v-.04c2.43-.55 4.8-1.28 6.74-3.03 2.85-2.75 5.4-5.57 8.57-7.74-2.35 3.02-2.6 7.31-6.48 9.25-.97.63-2.18.74-3.18 1.22 1.42.03 2.71-.48 4.12-.61 5.21-.82 11.18.01 14.83-4.43-1.36 3.1-4.75 5.69-7.85 6.78"/>
    <path fill="#FFF" d="M-555.01 214.4c-2.7.73-5.61.97-8.26 1.86 4.47-3.83 4.22-9.77 7.2-14.28.95-1.29 1.74-2.63 2.85-3.84-1.81 3.65-1.03 8.37-3.11 11.9a15.73 15.73 0 01-3.23 3.88c.42-.02.78-.38 1.14-.62 3.4-3.38 7.82-4.33 11.48-7.08a11.15 11.15 0 003.46-4.35c-.7 5.6-6.26 10.86-11.53 12.53"/>
    <path fill="#FFF" d="M-548.3 204.85c-2.1 1.38-4.23 2.65-6.25 4.21v-.18c3.1-5.15 1.58-12.21 3.49-17.86l.7-1.9c-.38 3.53 1.15 6.51 1.04 10.05a11.36 11.36 0 01-1.93 5.73h.18c1.53-1.99 2.71-4.1 4.48-6 2.75-2.65 5.54-5.37 5.9-9.05.93 6.14-2.5 11.52-7.6 15"/>
    <path fill="#006BB5" d="M-572.06 204.44l.22-.3c.95-.74 1.97-1.44 2.81-2.35h.12c-.2-.06-.44.12-.65.03-.45-.2-.53-.6-.53-1.06l-1.94-2-.1-.3c-.15.38-.44.61-.71.9.01.25-.08.63.22.8.63.2 1.45.62 1.6 1.36-.26.7-1.59 1.33-.77 2.08.26.38-.38.52-.27.84m-11.29-25.63c.37.21.57-.17.87-.25.44.05.79.43 1.06.71.28.13.55-.05.8-.14.18-1.3 1.82-1.12 2.3-2.35l-.3.11c-.12-.17-.43-.1-.42-.38.27-.25.62-.65.95-.76a15.76 15.76 0 00-4.5-2.05c-.63-.15-1.3-.16-1.9-.38.3.9.04 2.23.23 3.27l1.13.37c.34-.54 1.06-.65 1.37-1.18.2-.17.45 0 .6.2.06.42-.05.84-.18 1.25-.43.86-1.45.96-2 1.58m16.81 10.61a20.79 20.79 0 01-2.77 6.04c-.52.66-1.03 1.58-1.7 1.92l1.43 1.27c.08-.08.04-.21.06-.32 0-.19.09-.41.32-.38.7-.02.71.73 1.1 1.1-.07.61.45 1.08.27 1.63 3.99-4.2 5.98-9.35 6.34-15.05l.22-.25c-1.42.14-2.92.04-4.39.06l-.35-.1c.1.96-.15 1.89-.21 2.84l.5.56c.16.23.1.56-.1.73a.59.59 0 01-.72-.05m-3.8-13.97c-.53-1.01-1.38-1.91-2.11-2.81l-.08.2c-1.45 1.5-3.05 3.07-4.43 4.62.09.19.24.36.43.45.05-.37.26-.7.3-1.1.37-.52.95-.2 1.43-.08.76-.17 1.47.17 2.24.16.58.28.62 1.01 1.14 1.3.14.2.03.44-.16.6.16 1.18.73-.32 1.33-.04.25.1.57.06.75.33.1.5.7.4.73.87-.05.24-.3.3-.46.43.15.47-.48.77-.27 1.28.92.17.95-.89 1.38-1.36-.24-.82-.41-1.66-.88-2.38-.52-.12-.84-.74-1.36-.84-1.01-.4.15-1.03.03-1.63m-14.09 32.97c1.17-.4 2.53-.33 3.8-.54-.26-.1-.52-.15-.7-.41-.75-.04-1.1-.82-1.33-1.4-.11-.43.18-.78.35-1.14-.31-.65-1.3-.18-1.86-.41-.16-.13-.28-.32-.5-.35l.24.35c0 1.3.16 2.62 0 3.9m1.02-12.32c.4.08.12.53.42.68.65-.2 1.14.55 1.66.08-.03-.75.8-.68 1.26-.87.72-.42 1.52-1 1.44-1.94l-.12-.14c-.49 0-.73.38-1.1.67-.44.26-.67-.47-1.03-.3.02.09.1.12.17.15.09.11.12.35 0 .46-.54.49-.8-.24-1.3-.2v.2c.02.1-.03.28-.19.22-.32-.52-.96-.33-1.28-.79-.2-.1-.4.03-.53.16-.12.24-.62-.04-.5.38-.39.14-.43.56-.72.82-.5-.09-.7.47-1.17.46.05.1 0 .25.14.26.29.13.57.15.92.11.47-.75 1.26-.12 1.93-.4m4.66-6.18c.03.24.06.55.26.76.62-.1.35.75.92.68.31-.1.02-.36.1-.57-.08-.48-.55-.53-.86-.8-.04-.1.03-.18.07-.26-.23-.12-.34.02-.49.2m-.72-21.8c-1.6-.57-3.34-.8-5.08-1.07l.15.35-.03 4.27.42-.08a13.9 13.9 0 017.08 2.9l.12.32c.7-1 1.78-1.85 2.6-2.79l.8-.46-.38-.16a18.45 18.45 0 00-5.68-3.28m-29.36 17.62l.34 2.9c.14 1.13.63 2.2.6 3.3.17-.23.06-.7.5-.75-.19-.35.32-.65.04-.95.14-.75.23-1.53.9-2.08.8-.04.86-1.1 1.67-1.14.41-.02.67.54.84.72-.5-.6-.48-1.62-.35-2.31l-.35.15c-1.47-.02-3 .1-4.38-.1l.19.26zm28.3 7.4c.38-.4 1.18-.39 1.22-.95-.56-.09-.84.21-1.21.52-.05.12-.23.34 0 .42m10.04-7.92l.49.48c.48.34.16 1.04.67 1.33.61.31.84 1.03 1.11 1.56.1-.14.1-.31.15-.45.2-.87.18-1.85.45-2.7-.95.05-2.04.14-2.87-.22m-6.37 11.06c.54.14.9.81 1.58.6.57-.31 1.51.2 1.9-.4-.07-.6.44-1.02.7-1.52l.18-.05c.32.33.3.82.44 1.18.44-.47.79-1 1.19-1.48a14.1 14.1 0 002.3-4.88c-.42.02-.85.1-1.24.22-.46-.03-1.02.24-1.4-.08-.15-.12-.25.07-.23.2-.16.23-.32.53-.68.42-.29-.13-.29-.43-.38-.65.02.17-.05.33-.08.5-.33.34-.45.67-.68 1.05-.33.36-.87.23-1.22.53-.06.76-.9.6-1.37.84-.03.1.08.11.13.19.22.06.52.06.67-.16.67.18.53-.66.91-.95.34-.04.65-.33.99-.1.35.42.43 1.03.38 1.6-.38.37-.18.99-.46 1.43.06.52-.57.75-.49 1.28-.2.23-.55.27-.87.27-1.27-.48-2.6-.79-3.94-.9a.27.27 0 00-.19.3c.57.3 1.26.31 1.86.56m-9.41 13.84l.16-.25-.49.13c-6.15-.42-11.6-2.6-16.1-6.95l-.05.2-3.25 3.26c4.92 4.27 10.48 7.02 16.83 7.88 1 .18 2.16.08 3.14.38l-.24-.38v-4.28zm-6.37-17.03a12.1 12.1 0 005.7 2.63c.1-.43-.07-.96.15-1.33.16-.35.58-.33.9-.27.19-.02.3-.25.19-.42-.46-.08-.25-.59-.41-.87.02-.16.29-.13.22-.34-.32-.25.15-.53-.11-.8.07-.05.14-.14.22-.2-.96.4-1.98-.18-2.82-.56-.42-.24-1.01-.47-1.1-.98-.69 1.1-1.99 2.12-2.94 3.14m-1.62-4.92c-.15-.08-.17-.06-.3.07-.08 0-.17.02-.23-.03 0-.9-1.01-.36-1.4-.83.45.82.68 1.75 1.14 2.57.29.72.92 1.3 1.2 2 .3-.56.9-1.02 1.33-1.54a.81.81 0 00-.15-.61c-.14-.34 0-.8-.26-1.1-.4.15.14.56-.04.8-.17.1-.36-.04-.37-.2-.37-.06-.65-.37-.77-.7.3-.2-.07-.28-.15-.43m3.03.46c-.12.39-.34.74-.65 1.02l.05.03c.38-.27.66-.75 1.14-.79l-.54-.26z"/>
    <path fill="#006BB5" d="M-586.62 203.98a18.3 18.3 0 01-10.18-3.82c.1.37.6.62.46 1.09-.27.43-.83.44-1.26.43-.91-.15-1.57.54-2.42.63-.78.23-1.04-.71-1.75-.63 4.39 3.83 9.4 6.23 15.28 6.55l.44.3-.2-.54v-4.17l-.37.16zm-17.05-2.05c-.54-.38-1.02-.99-1.47-1.52a2.16 2.16 0 01-1.33-1c-.15-.18 0-.5-.18-.62l-.2.23c-.55.27-.75-.3-1.13-.53-.5-.27-.25-1.2-.92-1.03-.25-.01-.33-.3-.49-.45-.6.05-.77-.62-1.1-.95-.06.14 0 .33-.19.42-.63.15-.85-.63-1.28-.95-.11.05-.19.18-.35.15a1.9 1.9 0 01-.65-1.33c-.52-.59-.28-1.52-.18-2.23.1-.19.36-.3.31-.53.15-.33.5-.37.83-.38a.8.8 0 01.3.3c.22-.13.67.01.5-.45.27-.23.66-.31 1.03-.38.25.32.37.69.7.98l-.21-.34c-.41-1.57-.67-3.18-.77-4.8.02-.1-.2-.15-.07-.23l.03.04c.02-.35-.01-.65.04-.88l-.42.15-4.4-.03c.26 5.05 1.6 9.65 3.88 13.87 1.12 2.08 2.76 3.95 4.2 5.9l3.14-3.25.38-.16zm5.05-36.87c-.98.68-1.88 1.57-2.89 2.16 1.18.75 2.14 1.98 3.2 2.96l.1.3a19.02 19.02 0 019.48-4.8c.83-.08 1.67-.36 2.49-.19-.06-1.5-.2-3.07-.04-4.55a24.27 24.27 0 00-12.34 4.12m-3.75 16.49c-.18.75-.08 1.64-.39 2.35.56-.26 1.37-.16 1.97-.08-.35-.19-.05-.65-.26-.9-.05-.4-.11-.88.26-1.14-.03-.65.65-.98.72-1.56.18-.66.93-.22 1.3-.57.23-.13.03-.35.03-.52.31-.43.8-.4 1.18-.65.27-.4.62-.85 1.06-1.1.95.04.96-1.3 1.86-1.33-1.23-.93-2.4-2.17-3.49-3.25a18.65 18.65 0 00-4.24 8.75m.6 6.4c.04-.28-.38-.36-.34-.64.3-.59.02-1.53.8-1.79-.56.1-1.05.2-1.52-.14l.23.38c.03 1.04.45 2.04.23 3.1.17-.3.22-.72.6-.9m4.35 11.48v-.09l-.06-.1.06.2z"/>
    <path fill="#006BB5" d="M-602.67 168.55l-1.71 2.17c-2.8 3.83-4.12 8.27-4.52 13.1l4.33-.08.41.16c-.17-.12-.13-.3-.19-.46.35-4.5 1.93-8.5 5.04-11.86a31.33 31.33 0 01-3.34-3.33l-.02.3zm13.33 29.53c.33-.35.74-.62 1.19-.78-1.4.29-2.64-.72-3.84-1.28-.68-.5-1.56-.92-1.97-1.67a23.6 23.6 0 01-3.14 3.22c.49.03.76.57 1.17.8 2.37 1.98 5.32 2.93 8.06 3.6l-.75-.35c-.57-.64-1.38-1.4-1.4-2.3.56-.19.5-.81.68-1.24m-10.8-12.56l-.12.84c-.19.5-.8.12-1.08.46-.21.32 0 .65.18.9-.44 1.01 1 1.33.98 2.24.44.57-.06 1.39.57 1.9.14 1.02-.14 2.41.76 3.22l.16.98c.18.68-.81.5-.68 1.1.2-.1.23.16.25.22v-.03a41.79 41.79 0 014.05-4.13l-.6-.6c-1.12-1.68-2-3.47-2.42-5.42l-.46-.23c-.02.5-.25.9-.22 1.4l-.16.18c-.34 0-.54-.28-.82-.45-.07-.17-.25-.46.03-.6.16-.01.27.03.38.1.14-.16.08-.41.16-.64.04-.38-.3-.73-.06-1.06.3-.03.53.34.65.54.3.09.54-.15.8-.27 0-.27.37-.63-.04-.79.23-.61.06-1.26-.03-1.86-.17-.52-.76-.42-1.18-.38-1.28.4.2 1.37-.1 2.16-.2.46-.66.04-1 .22m40.47-.07l-.27-.2.16.43c-.25 5.26-2 9.9-5 14.03-.58.69-1.13 1.54-1.86 2.03 1.2.95 2.53 2.37 3.52 3.46l.12-.24c4.84-5.51 7.58-11.9 7.88-19.28l.2-.38-.24.12-4.5.02zm-42.78-19.33l.08-.22c4.6-4.2 9.97-6.5 16.13-6.8l-.14-.37-.05-3.8.13-.43a30.66 30.66 0 00-16.98 6.02c-.97.66-1.82 1.67-2.8 2.24h.14c1.24.91 2.43 2.23 3.49 3.36m16 1.07c-4.02.29-7.5 1.96-10.54 4.48 1.2.82 2.27 2.17 3.36 3.13l.24-.35a14.75 14.75 0 014.82-2.49c.78-.08 1.56-.45 2.38-.27-.17-1.54-.17-3.1 0-4.65l-.27.15zm.2 6.25c-2.53.34-4.87 1.2-6.73 3.18h.34c.39.38 1 .3 1.29.8.14.29-.27.26-.26.5.09.06.2.07.25.18.3.1.24-.17.35-.3.4-.39.46.38.84.38.27-.17.65-.19.83.11.26-.22.8-.02.87-.42.5-.52.23-1.33.96-1.66.25.14-.02.38.07.6.5.2 1.04-.41 1.44.08-.36-1.03-.28-2.31-.24-3.45m.16 7.08c-.47.79-1.26.96-2 1.18-.21.26-.16.8-.65.76-.16.35-.7.56-.49 1.06-.26.54-.13 1.23-.27 1.82-.93.58-.67-.78-1.13-1.06l-.17.27c-.18.04-.3-.07-.44-.2-.14-.05-.37-.1-.5.04-.21.35-.52.63-.45 1.1-.09.29-.56.2-.5.5.53-.02 1.09-.11 1.6-.23.36.1.66-.17 1.02-.18.12.06.28.18.22.37h.13c.25-.19.36-.48.25-.76.04-.33.4-.33.61-.42.21.1.08.3.12.46.7.26-.17.78-.27 1.16-.2.3 0 .98-.6.89-.11-.03-.18-.14-.15-.27h-.09c0 .25.18.6.43.7.44-.35.45-.97 1.1-1.05.32-.35-.15-.88.34-1.17.82-.02 1.7-.36 2.35.3-.05.29-.15.42.08.65-.16.36-.27.76-.57 1.06.08.2.02.45-.17.6-.2.96-1.32.5-1.96.84 1 .75 2.2 1.04 3.49.94.67-.03.38-.86.72-1.24.22-1.1 1.24-.35 1.85-.65.24-.47.47-.93.53-1.47a1.05 1.05 0 01-.42-1.18c-.27-.37-.24-1.03-.83-1.1-.08-.12-.01-.28.07-.37-.01-.35.33-.46.43-.73-.36-.23-.27-.75-.24-1.06-.62.18-.68-.63-1.14-.8-.1-.37-.5-.43-.81-.49-.77.37-.89-.57-1.46-.79-.06-.17-.2-.42 0-.56.29-.25.66-.04 1-.06l-.27-.14c-.25-.28-.8-.1-1.14 0 .32.32.19.89.38 1.28"/>
    <path fill="#006BB5" d="M-610.41 183.87l-.11-.62c.3-5.04 1.9-9.52 4.74-13.53.7-.8 1.23-1.81 2.11-2.42-1.02-.96-2.1-2.08-3.18-3.14l-.1-.43c-4.5 5.01-7.28 10.72-8.09 17.25-.17.94-.05 1.92-.25 2.89 1.58-.13 3.3-.13 4.88 0m42.71 18.87c-.45.86-1.42 1.41-2.16 2.08-1.03 1.03-2.7 1.24-3.23 2.73-.55.5-.73 1.3-1.5 1.58-.3.76-1.1.71-1.56 1.26-1.32 1.18-2.18-.75-3.38-.99l-2.41.43c-.84 0-1.67.3-2.47.03.12 1.6.12 3.34 0 4.95l.3-.19c7.61-.32 14.18-3.22 19.82-8.33l-3.33-3.18-.08-.37zm-16.79-44.05a.6.6 0 01.15-.37c.22-.13.4.07.5.22.02.22.11.6-.07.73.18.03.28-.11.45-.11 3.5.25 6.91 1.29 9.97 3.03v-.08c.61-.3 1.4-.7 2.03-.16.76-.28.9.65 1.51.76.75.44 1.6 1.27 1.68 2.13.14.29.59.49.65.8.5-1.08 1.51-1.84 2.39-2.77l.53-.23a29.45 29.45 0 00-16.76-7.92c-1-.17-2.11-.08-3.07-.38.19 1.25.14 2.95.04 4.35m0 6.8c.6-.2 1.22.05 1.82.06 3.1.51 6.02 1.5 8.5 3.41-.3-.32-.67-.68-.73-1.13.05-.07.11-.08.19-.07.03-.5-.5-.74-.56-1.18.07-.1.18-.2.34-.15.52.5.98 1.04 1.39 1.63.35-.14.63.08.88.26.46.28.18.86.53 1.18.06.93 1.2 1.45 1.13 2.38.01.22.29.05.38.16l.95 1.17c-.18.22-.03.49.16.64.42.2.66-.34 1.09-.26.6.34-.1.75-.04 1.13.24.02.54-.18.73.05.08.35-.29.57-.43.8 0 .34.28.26.54.34.28-.02.46.33.38.57.79.82-.24 1.7.14 2.57.25.57-.06 1.12-.41 1.55.01.7-.62 1.12-.87 1.7l-.8.16c-.43.42.37.95-.07 1.22l1.77.03-.19-.19a2.6 2.6 0 01.24-2.24c.27-.57.33-1.25.84-1.74.1-.03.31-.24.41 0 .03.54-.02 1.15-.27 1.63.5.72.44 1.67.49 2.57 1.56-.1 3.1-.13 4.63-.11l-.14-.3a22.68 22.68 0 00-2.06-8.18c-.33.02-.57.28-.95.19a.28.28 0 01-.19-.31c-.63-.6-1.03-1.4-1.73-1.94-.82.09-1.17-.85-1.9-.94-.65-.27-.2-1.31-1.14-1.02-.46-.2-.9-.54-1-1.06 0-.83-.15-1.71-.88-2.24-.58-.21-.81.54-1.38.42-.32-.16-.18-.57-.28-.83-.1-.25-.38-.42-.33-.73.75-.98-.9-.96-.53-1.93-.1-.7-.8-.97-1.17-1.52a25.65 25.65 0 00-7.66-2.2c-.68-.09-1.3.06-1.9-.26l.16.3c-.03 1.47.07 3.03-.08 4.41"/>
    <path fill="#006BB5" d="M-567.22 167.12c.34.07.44.47.66.7 1.15.62 1.45 1.85 2.46 2.55.57 1.19 1.88 2.1 1.92 3.46a25.08 25.08 0 012.4 9.8l-.12.19c.14 0 .27-.06.38-.14l4.55-.08c-.3-.44-.18-1.09-.25-1.63-.61-7.02-3.6-13.04-8.31-18.34-.87 1.17-2.05 2.26-3.15 3.38l-.54.1z"/>
    <path fill="#FFF" d="M-583.85 157.94c.14-.25.5-.16.7-.08l2.26-.98c.92.08 1.93.2 2.47.95v.11c-.57.47-1.3.85-2.05.53-1.04.21-2.5.81-3.34-.26-.04-.08-.13-.2-.04-.27m13.57 2.87c.32.1.6.24.72.58-.09.35.33.66.07.94-.85.22-.93-.74-1.59-.98a.67.67 0 01-.1-.45c.29-.37.57.23.9-.09"/>
  </g>
  <path fill="none" stroke="#929497" stroke-width=".5" stroke-miterlimit="10" d="M-489.57 371.36V129.49"/>
</svg>
